<?xml version="1.0" encoding="UTF-8" standalone="no"?>
<!-- Generator: Adobe Illustrator 23.1.1, SVG Export Plug-In . SVG Version: 6.00 Build 0)  -->

<svg
   version="1.1"
   x="0px"
   y="0px"
   viewBox="0 0 371.68979 828.5498"
   enable-background="new 0 0 1500 875"
   xml:space="preserve"
   id="svg2470"
   sodipodi:docname="Tesla-Model-3.svg"
   width="371.68979"
   height="828.5498"
   inkscape:version="1.1.2 (b8e25be833, 2022-02-05)"
   xmlns:inkscape="http://www.inkscape.org/namespaces/inkscape"
   xmlns:sodipodi="http://sodipodi.sourceforge.net/DTD/sodipodi-0.dtd"
   xmlns="http://www.w3.org/2000/svg"
   xmlns:svg="http://www.w3.org/2000/svg"
   xmlns:rdf="http://www.w3.org/1999/02/22-rdf-syntax-ns#"
   xmlns:dc="http://purl.org/dc/elements/1.1/"
   xmlns:x="adobe:ns:meta/"
   xmlns:xmp="http://ns.adobe.com/xap/1.0/"
   xmlns:xmpGImg="http://ns.adobe.com/xap/1.0/g/img/"
   xmlns:xmpMM="http://ns.adobe.com/xap/1.0/mm/"
   xmlns:stRef="http://ns.adobe.com/xap/1.0/sType/ResourceRef#"
   xmlns:stEvt="http://ns.adobe.com/xap/1.0/sType/ResourceEvent#"
   xmlns:xmpTPg="http://ns.adobe.com/xap/1.0/t/pg/"
   xmlns:stDim="http://ns.adobe.com/xap/1.0/sType/Dimensions#"
   xmlns:stFnt="http://ns.adobe.com/xap/1.0/sType/Font#"
   xmlns:xmpG="http://ns.adobe.com/xap/1.0/g/"><defs
   id="defs2474">
	

	
	
	
	
	
	
	
	
	
	
	
	
	
	
	
	
	
	
	
	
	
	
	
	
	

	
	
	
	
	
	
	
	
	
	
	
	
	
	
	
	
	
	
	
	
	
	
	
	
	
	
	
	
	
	
	
	
	
	
	
	
	
	
	
	
	
	
	
	
	
	
	
	
	
	
	
	
	
	
	
	
	
	
	
	
	
	
	
	
	
	
	
	
	
	
	
	
	
	
	
	
	
	
	
	
	
	
	
	
	
	
	
	
	
	
	
	
	
	
	
	
	
	
	
	
	
	
	
	
	
	
	
	
	
	
	
	
	
	
	
	
	
	
	
	
	
	
	
	
	
	
	
	
	
	
	
	
	
	
	
	
	
	
	
	
	
	
	
	
	
	
	
	
	
	
	
	
	
	
	
	
	
	
	
	
	
	
	
	
	
	
	
	
	
	
	
	
	
	
	
	
	
	
	
	
	
	
</defs><sodipodi:namedview
   id="namedview2472"
   pagecolor="#ffffff"
   bordercolor="#666666"
   borderopacity="1.0"
   inkscape:pageshadow="2"
   inkscape:pageopacity="0.0"
   inkscape:pagecheckerboard="0"
   showgrid="false"
   inkscape:zoom="0.76466667"
   inkscape:cx="402.13601"
   inkscape:cy="413.25196"
   inkscape:window-width="1920"
   inkscape:window-height="1027"
   inkscape:window-x="-8"
   inkscape:window-y="-8"
   inkscape:window-maximized="1"
   inkscape:current-layer="g3695" />
<metadata
   id="metadata1650"><?xpacket begin="﻿" id="W5M0MpCehiHzreSzNTczkc9d"?>
<x:xmpmeta
   x:xmptk="Adobe XMP Core 5.6-c145 79.163499, 2018/08/13-16:40:22        ">
   <rdf:RDF>
      <rdf:Description
   rdf:about="">
         <xmp:CreatorTool>Adobe Illustrator CC 23.1 (Macintosh)</xmp:CreatorTool>
         <xmp:CreateDate>2019-11-21T05:58:46-07:00</xmp:CreateDate>
         <xmp:MetadataDate>2019-11-21T05:58:46-07:00</xmp:MetadataDate>
         <xmp:ModifyDate>2019-11-21T05:58:46-07:00</xmp:ModifyDate>
         <xmp:Thumbnails>
            <rdf:Alt>
               <rdf:li
   rdf:parseType="Resource">
                  <xmpGImg:width>256</xmpGImg:width>
                  <xmpGImg:height>200</xmpGImg:height>
                  <xmpGImg:format>JPEG</xmpGImg:format>
                  <xmpGImg:image>/9j/4AAQSkZJRgABAgEASABIAAD/7QAsUGhvdG9zaG9wIDMuMAA4QklNA+0AAAAAABAASAAAAAEA
AQBIAAAAAQAB/+4ADkFkb2JlAGTAAAAAAf/bAIQABgQEBAUEBgUFBgkGBQYJCwgGBggLDAoKCwoK
DBAMDAwMDAwQDA4PEA8ODBMTFBQTExwbGxscHx8fHx8fHx8fHwEHBwcNDA0YEBAYGhURFRofHx8f
Hx8fHx8fHx8fHx8fHx8fHx8fHx8fHx8fHx8fHx8fHx8fHx8fHx8fHx8fHx8f/8AAEQgAyAEAAwER
AAIRAQMRAf/EAaIAAAAHAQEBAQEAAAAAAAAAAAQFAwIGAQAHCAkKCwEAAgIDAQEBAQEAAAAAAAAA
AQACAwQFBgcICQoLEAACAQMDAgQCBgcDBAIGAnMBAgMRBAAFIRIxQVEGE2EicYEUMpGhBxWxQiPB
UtHhMxZi8CRygvElQzRTkqKyY3PCNUQnk6OzNhdUZHTD0uIIJoMJChgZhJRFRqS0VtNVKBry4/PE
1OT0ZXWFlaW1xdXl9WZ2hpamtsbW5vY3R1dnd4eXp7fH1+f3OEhYaHiImKi4yNjo+Ck5SVlpeYmZ
qbnJ2en5KjpKWmp6ipqqusra6voRAAICAQIDBQUEBQYECAMDbQEAAhEDBCESMUEFURNhIgZxgZEy
obHwFMHR4SNCFVJicvEzJDRDghaSUyWiY7LCB3PSNeJEgxdUkwgJChgZJjZFGidkdFU38qOzwygp
0+PzhJSktMTU5PRldYWVpbXF1eX1RlZmdoaWprbG1ub2R1dnd4eXp7fH1+f3OEhYaHiImKi4yNjo
+DlJWWl5iZmpucnZ6fkqOkpaanqKmqq6ytrq+v/aAAwDAQACEQMRAD8A9U4qo3N5aWqc7mZIlNac
2ArTwB6/RkoxJ5M4Y5S5C0t/xNbyTmC0tLm6kBKVWMRqHAJ4sZjHQ0U9st8AgWSB+PJv/KEC5GI+
37rc2ra2rANo5AbZf9IirX9X44+HD+d9ijDjP8f2FUPmG1hl9K+gnsKkKslwg9Mk/wDFkbSIPpOD
wCRsQfcj8tIi4kS93P5GimaSJIgeNg6MKqymoI9iMqIpxyCObeBCFur8W8Ak9MvI8nowxAgF3LFR
udgNqn2ycYWW2GPiNeVqP1zWP+rcv/I9f+aclww7/sZcGP8AnfYrWN81z6sckRguIGCyxEhvtCqk
MOoIyM4V5hhkx8NEGwUVkGt2KuxVDXepafZit3cxwGhYK7BSQPAHc/Rk445S5BshilP6QShovMWl
yoXhaaVB1dLa4ZR9IjIyRwSHOvmGw6WY51/po/raXzNohlET3PoudwJ0khH3yqgw+BOrr9KnSZKu
r91H7kyVlZQykFSKgjcEHKXHIbxV2KoAa7phrxkdwCRyWKVlNDQ0YKQenbLfBl+Kb/y8/wAEL4NX
sJp1gR2Er14K8ciV4ipoXVR0wHFIC2MsMgLPL3hGZW1OxV2KuxV2KuxV2KuxV2KuxV2KuxVI549L
/TU013L6c8QRo46lQVUVDE/621Ae2ZAMuChycyJn4YERsUpOu22panFHcWkcqq1F2IYAkdXJoR8V
cv8ABMI7Fyvy5xwJBIT+4stIaMFESFgymsf7lx8Q3+HidvfMaM5ODHJkvv8AtbfTtKlhEU8zzr39
S4kNfmOQH4YBOQNgV8FGWYNgV8Ax/Ubiz0YFLQFEarHjJKFHxMFFEkWpPHqfxzKhE5Of6HNxRll+
r7h+pMNG1bUJLm3SacTwXJZfjQLIjKrNQMlFYUTwrv1yrLjiAaFU058MQCQKIQl3a30t/wCrIAl2
vJovRMrLx9RhQkFSKU7Urv0ycZAR8myE4iND6fOu5Gi6tzQi4JXf/dl3vSh6hjlfCe77mngPd9kV
HTrcnWYribk7vy9J6yceHFiDyZjWo7VI65KcvRQZ5ZfuyB+hk2Yjr3Yql+tRzywwQQXDWzyzBfVW
tQOLN2K+GW4iASSL2b8BAJJF0Em1FtG0z0oJIfUvVNWuoQsDBn3NTHxPTt4d675fDjnv07ubl4hk
yWQfT3Hf700063E9ivpXcyREcDEOJ4024/vBI23zymcqO4DjZZVLcD8e6lSPTppYnjlvHkgLMojK
QkUDEUNUIPTwwGYB2G/xQcoBsDf4/rSsaSdEDTxXsscG7vElAlagGiMJFJaoHb5jLvE8TYjdyPG8
XYxF/j3fpas/NF7K1UiiuIl2cchA43pyDMzI3ao+HcimMtOB5fas9JEdSD8/2/emmrTyPo/1iCVr
csI2VqhDRyBRmNeP2q1/htlWMeuju4+GIGSiLQmmC+FiqRmf918KCNrUoQOnxcT/AByeThvp9rbl
4eKzW/8AWQ2uveqsZ9SZPSJkEszW8dGApReIUtsegOSwgeX2s9OI+W/dbJI1KRqjOZCoALtSrEDq
aACp9hmKXAJsrsCHYq7FXYq7FXYq7FXYq7FXYq7FVkrKil3l9JB1YlQB9JGEMoi9qSMaXoUdyJku
oQp+xE7Iyhj1oCRUdKDt2zI8SZFUXL8bIRVFWuILcxEW9zZLL2aSKNl+5WX9eCJN7iTGMje4lXvK
wfUoYwbq5tCzNxBihWnTvu1Pc9MdzyB+afUT6RL5tXOnaNc0L3NupBHxR8ENK7jY99xv0wxnMdCs
MuSPQphYWWnRKrWnArH8PJeDHpvVgOVfpyqc5Hm05Mkz9TVxpYml5+pRDQmNkDgkMX3Lf5R7YxyU
FjmoIaTSdQ9cmOSzEHZGtav/AMEHA/DJjJGut+9sGaNb8V/1v2ImDTBDciZXAUMWMYRVFSvGop7f
RkDksU1yy2KR2VtLsVUbu0huovTlUMAQwrXYjuCCpH35KMiDszhMxNhJ9S8qRXk6zCb02FOQId60
FOpkB6e+Xw1BiKpysWsMBVfj5I2LRbeKJI1JIQUBLSV33PRwNzvtlZyklplnJN/q/UvGk2/Sm3zk
/wCa8HiFHjH8V+pQn0OxvLbirAqw+GRWdt/pcg5IZTEs46iUT+P1Iax8pW1vyM0vrM1AKB4wABT9
l6n78nPUk8mzJrTLkK/HuTW4slkshax0RF4BQQWACEEDYqe3jlMZ0bcaOSpcRQf+HrNlT1gJJFXi
z1kFdqE0Em2T8c9G38zLp+j9TUnl229IpBxi5faJEjgjiR0MnatcIzm9/wAfYkao3vv8v1JsK036
98ocV2KuxV2KuxV2KuxV2KuxV2KuxV2KpJfW63uqMJQri19NLaJhyX1ZPiaQg7HigO2ZEJcMdurm
Y5cENut37u5GnTHd+cl5M70oRSLhv1opQ5X4nkGnxa5Afb+tYulI7SBp5DxYAECMdgeioB3w+J5M
jmroPt/W0mi2LmQSh5aNtyd/5QegIXv4YnLLopzyFVssOiaet2ERGRZIiRxkccShA2378hsdtsPi
ypP5iXD8VK308aTfQGKT/Rbg+iykAENQsn2aA7ggfDtkjPjBvmGUsviRNjcbrfMN9eLwtbeK4Cl1
aee3UswjoTtQrSpFOo7/AEuCA5mvinTY4/USPK+9ER2UzRxv6sgV05nkbgFeh4spn5ct/DImY/Ff
qYHIL5D/AGP/ABKD0PULxbyW2lhumt5W5QS3CsOJoQ6/GzmgK7CuWZYCrBF+TbqMceEEGNjnTIMx
XBdiqC1aa5S3SK1PG4uJFhjeleHKpZqUNeKqTlmMC7PIN2GIJs8hugItMuGg4RiOaJ6/6TcHlOwP
Q8uLfR/DLDkF/q5Nxyi99j3DkqfoiQcA4thzJAUQmi0BPVGjr08MHie/5sfGH9L5/wBrpNFbmg5w
qHJHwQnrQn9p28MRl9/zUZ/f8/2KU/l21t4/VjmlorKZK+m1E6NQFKDiN9h2yQzk7Mo6oyNED7f1
rbjSr+xb65ayxv6YBYEGOiKatWhYNUHf5bb4xyRlsUxzRn6ZAprPqVpb2a3k7GOFlDCoJO45Uotd
6ZSMZJoONHFKUuEc0p0zVLq8tHuHmm5KSzx24gIRTuo4uvPb6cuyYxE1t8bcrLhEJVQ+N/2Ou9bb
TtQgS4ncwN8NxHKImdeX2XAhGwHfl26DGOLiiaG/471hp+OJob9Of6U+jkSSNZENUcBlPiCKjMci
nCIo0uwIdirsVdirsVdirsVdirsVdirsVSS/nFlqTPJ8KXXptBMQeImj+Exk9BzQ9fnmRAcUfc5e
OPHDbpd+7v8AgjDqV0knCayepqV9JleoFN9+Apv45DgHQtfhRI2k0mpcTIxt5KFq7PATQKB2k9sf
D8/v/Upxct/v/UsXWrOMyvOHhQsCGZeQ6Kv7HOm/jh8Inkk4JGq3WnWbF7rnGXkCR0TijUYyEE/E
wVRQIOp74+EaT4EgKKlbX0mq30PGHhaW/wC+5MQSWIKpWn2SKnb+zJShwDzLKeMY4nf1HZEX7XUd
05t0LPLHHGtVcps5qWKqw+FT3yMKI3YYxEx371irqIABtrUkChNJB/zLx9Pefx8Ukw75fZ+tq1+u
NcQJcJRoHY1RHEZVozvUqq7E0xlVGuqz4aJHX9abZS4zsVQGrzC3W2umFY4J1Mp/lV1aMsflzrlm
MXY7w3YY8VjvH7VsGpWtvBHHMWAUBUkVGeN1UABg6Bl3HauE4yTsmWKUiSF8mqWRaI8moGqf3cmw
4kfy++AYygYZb/sc+qaeZIwbhEIYkiQ8DTiR0fie+Ixy7lGGVHZdeXVq9nIFmQrJ+65hgQC+1f8A
Yip+jGMTfJEIESGyG1HW7AW8sMUnrSSLwHpjmAX+EEkbdT23yUMUrstmLBKwTsqXKC30eGOWn7r0
FYMRQ8XSo5Me9O+CJuR+LGB4shI63+lCWup2yh2htZYY3PJfQVGDj+bcDrk5Yz1LbPEepB96jf39
o6ymS2PJ4nSO5mCKVbiSB0A7eNclCB72WPHIVR68gyIEEVG4PQ5iuC7FXYq7FXYq7FXYq7FXYq7F
XYq7FVOSD1OQZyUYUMZCFafSpwg0yEqQ50qzNKxoaGo/dxdf+AyfiFn40vwSpz6NHIUMcno8a8gs
UDBqjavKMnbtTCMtfgso5yOYv4n9bf6FtCiLJ8bJvz4RqT234qo3HUdMfFK+PLp+lU/Rdp/Iv/Iu
L/mnI+IWPjS/FqsNssNBGxVASSiqigk+NFGAytjKd81bIsHYq7FXYq7FWnjSRGSRQ6MKMrCoIPYg
4QaSCRuELHpNhFE0MUbRQtWscbui/F1oqsAMkckibLYc0ibO5cNJsAKcG/5GSH/jbHxJL40vxTjp
VieqN8vUf/mrHxCvjSQ0PlrSUVS8Xqyr1lYnkT9BAyZzybJaqZ5GgiY9I06OZZlhHqrurEsenTqT
0yBySIq2s5pkVaLyDU7FXYq7FXYq7FXYq7FXYq7FXYq7FXYq7FXYq7FXYq7FXYq7FXYq7FXYq7FX
Yq7FXYqpXF3a2yB7mZIEJoGkYIK/NiMlGJPIMowlLYC0vbzToKsyi6D8erRo8i/8EisMs/Lz7m8a
PL3fcqW3mLQ7hgsd7EHJACOfTYk+CvxJwSwTHRjLS5I84lMcqaHYq0XUOE/aIJHyFK/rxpNIFte0
oMy+tUqSpKo7CoNDQhSDlvgy7m78vPuX2+r6dcTCGKWsrAlVZWWtOtOQFcEsUgLLGWGURZGyMytq
dirsVdirsVdirsVdirsVdirsVdirsVdirsVdirsVdirsVdirsVdirsVQGsC7eGGG1kMUs0oUsDxP
EIzEcqNT7PhlmKrst2DhBJkLoJJqMGg2KxRXq+vqIqTdqF58m3+L1H+LYd609q5kwM5cvp7nMxSy
zsx2j3f2BNtPt2nsI+F9MU4cCAsQoAKUoUJyicqlyH2uNklwy+kfb+t36Pup4WgnkhuLcMwRZ4fU
NASBWjIK48YBsWD718UA2LB8il8em3miLzj1A/VRuYGj5RqKgUVWeoqW7MPfLTkGTpu3nLHNzj6u
/r9y6280zSOeNuLiJd5GQpFIoqF+wzurbkftj5YJacDrX4/HRE9GB1o/P7a/Qqa3q0qpALQyRvPG
XSf0x6YDlAFZ2IVD8XU4MWMb2x0+Eb8VbF2l3GopYJEqACEcAFhL1p3DeqBjkjHiv9P7FzRgZX3+
f7EPrd3qY9IqQjwEzLN6fplaAqftSNXZtxTfpksUY/j+xnp4Q389ud/oZJErrGiyNzcAB3pSpA3N
O1cxS4B57LsCHYq7FXYq7FXYq7FXYq7FXYq7FXYq7FXYq7FXYq7FXYq7FXYq7FXYqoXlnDdxCOVQ
wDBlryFCO4KlT38clGRidmcJmJsJLq3lVbuRZkmKkEFk4mTlSi9XkG1Oor2zIx6jh2r8fJy8Os4R
Vfj5IuDTJoIUiiklUICKqIgdyWO9a05GtOmQOQE21SygmyB9qja/X5JCjR30Aqas/ocamp/ZkfDL
hH80/P8AUznwgXcT8/1L7rSZbyDg80zqRVS3psp79OQqPpxjk4TyCIZhE8h9qF0/ygkCH1Lhjy24
hAp4gcQCeTnoBSh2yU9TfRsy62+QTS9sC9rHbw/DGiiMLx5UClWH2mX+SmUwnvZcbHkqVlLrjSmj
WMvFNcPxIYxJABsvgXFK5dHJfcPm5Ec19QPff6nDRXltiqLJB6lOaSxwsacf8l9jv1DYPFo/2r44
B7/if1J+hYopYUYgVHgfoJzGLhFAXerNFfpp8Fu0t06iQFiViCHkKs6rIRutN1y2OO48ROzdDDce
Imh9v6Euh1DzJMZUmRLUL0eKA3FAf8oTCp/2GWmGMct/jX6G+WLEKrf3mv0fpd+ltcWMSII7pkr6
tsLa5hc0rTi9ZVqad1pj4cPd8Qf1L4OO63HnxRP6kbaeYbWWItcwzWUkdPWSaNwEqK1LgFePuaeO
VywkHai1T0xB2Il7imME8E8QlgkWWJvsyIwZTTwI2yogjYtEomJoiixvzh54h8u3mmabHYz6hqms
mRdPhiVvS5RNErGZ0WWREHrglljagBJG2BixGTzf+cD+ZLrTZdLstOs41LRTWltJrVFB41eRbzTi
OW7AGHl244qth83fmRFFJDHfWd/e2knE2115e1m2knhHH9401u9wsbMG/ZtyB4Yqm/ln83be/WS3
8waBq3lzVIEMs1tPZ3NxEUDcfUiliiqybj4nRN9hWhxVmOja/oet2zXWj6hb6jbo3pvLaypMquAC
UYoTxYV3U74qj8VdirsVdirsVdirsVdirsVdirsVdiqD1W4uIrZVttrmeRYYmNCFLdWIP8qgnLMc
QTvyDbhiCd+Q3QMNnqTQcY5mlDcq3U00iM1e6JF8IHhv9GWGUb/RTdLJC9xXkAPvK42OppwX1ftH
j/fynoCfD2wccfwAviQPT7A22nalyUNeGPmSAAZX3pXrzTwPbHjj3IGWHd936lE6HcWlvWLUJkVG
HwKeMaoTRjx36faO+S8USO4DL8wJHeIauLTXLN/rKXBuIoqFkLMBxH2yVYttTwJPhjGUJbVSYzxy
2IoptNqNnBaLdzyCOBgGDN4Ecugr2ykQJNDm40cUjLhA3Sqy1bUby0afnFGn2iYhG/BTuAzNMN6d
arl0scYmvx9zkZMMIyrf7f1N3OuT2N3Cl60SW7mktQFkFR8LKqyynjXrUYI4RIGuf48lhpxOJ4bv
7PuCdRyJJGsiMGRwGVh0IIqDlBFOIRRooDUNMuZxc/V7gRC5QKyMlQWXavIEEAjYjLIZAKscm7Hl
AqxySzy95d1XTVl9S6jVpCNkDODTueXH9WXZ88Z9HI1OqhkqgnC2uoKKC7XqT/dDua/zZRxR7nFM
4932pHr3lfVdQuY5kuonC05LIGSlKdOPPqMyMOojEVTmafVwgCCCm+j6QNOSUeoJGlKliqCMfCKV
IBNSTXfKMuXicXPn8StuSG1jQtQutTg1HTtQWxmjgltpw8AnEiSFWWh5RvGUZa/Aw5bcq8VpU0PK
fy1/JHz35X8x3eqXGuWkaSRtHC8AmuHfk/L40k9FBtTu2/b9rFXp66J5qWZ5hr0XKRVVh9SWnw1o
f73r8WKsF/Nf8pfO3nCythaa9bPcQNQw3EL28NNyHrEZiXUmgHHufiG4ZVOvyy/K2fyjKL68vYbq
/ls1tbgQQenvz9ShmLcpVjACJVV2FaCtAq9BxV2KuxV2KuxV2KuxV2KuxV2KuxV2KoHVpltxa3L/
AN1DODK3ZVdGj5H2BfLMYux5N2GPFY6kftWw6jaW8cdtMxWWNeFArMDwFKgqCMJgTuEyxSkSRyXv
qenloybiNOLnkHYIR8J6hqHAMcu5AxS32bfUdPaSILdRGjFjR16cSPHxOIhLuQMUqOxVb34rR0B3
mHpqfeT4QforXIw5scf1e5B6nrOnJayxidZJHUoqx/vKFhT4uNada5ZjxSvk24sEzIGl80Jj0iCF
0qY/q6vGfiJ4ulV71wA3In3ojK5k+/8AShrW5tYvUNvaTQRuaqYYPhcdm+x365OUSeZB+LZOMjVk
H3n9qjevaSmZns3MzQuIriaHiQ4UkCvAb/DWpOGAIrf7WWMSFb7XyB/an+YzhOxV2KuxV2KuxV2K
uxV2KuxV2KrBPAVDiRSh2DBhSp98NFPCe5sTRE0DrXbuO/TGivCWvrEHEt6icRWp5Cm3X7seEp4T
3NrLGzFVcFgKlQQTQ98aRRXYEOxV2KuxV2KuxV2KuxVTuIxLEY2jWVH+GRH6FSPkcMTRZRNG0DHp
Iitzaw1jtj0hDhgKjsXjZvxyw5LNnm3HNZs8/wAebnsLtYmMUhMgB4qHSPkfAlIf4YiY6/j7VGSJ
O/6/0qUNhqEwP1sFGGy0nEldveFckZxHL7v2spZIj6fur/fKMPle3RRzAd+rElaV7kKY2pX2yR1B
/H9rKWrJ/H7UVDo6RzrMV9RlpxV3+EFSSpoEG4qaZA5bFNcs9ivx96YNEksfCZFcGnJCOS1+kZVd
cmgGjs0tvbqAFiQAbABQABjxFPEe9p7S1kXi8KOta0ZQRX6RiJEdVE5DkVUAAUGwHQYGLsVdirsV
dirsVdirsVdirsVdiqX/AOHtCCcBp9uF8PSTwp4Zb40+8t/5nJ/OPza/w5oHIN+jraq9D6Sf0x8e
feV/NZf5x+bZ8u6EZGkNhAZG+0xjWpr17Y+PPvK/mclVxH5qtro+lWkvq2tnDBLQrzjRVNDTaoHt
kZZZSFEksZ55yFSJIReQanYq7FXYq7FXYq7FXYq7FXYq7FXYq7FXYq7FXYq7FXYq7FXYq7FXYq7F
XYq7FXYq7FXYq7FXYq7FXYq7FXYq7FXYq7FXYq7FXYql0lvr5llMV7AsTNWJXgZiq+BIkWv3ZaJQ
rkfn+xyBLFQuJv3/ALFslt5hKqEvrdWAPI/V2IPSlB6u3Q/fhEsfcfn+xRLF/NPz/YtNr5loaahb
Anp/ozGny/e48WPuPz/Ynjw/zZf6b9iItYdYWflc3UMkAH2EhKMdqfaLt8+mRkYVsDfvYTljrYG/
f+xG5W0uxV2KuxV2KuxV2KuxV2KuxV2KuxV2KuxV2KuxV2KuxV2KuxV2KuxV2KuxV2KuxV2KuxVL
tV1K4tHhit7ZriSYOaoC3AKVHIqKct3/AJh88tx4xLcmm/DiErJNUl2o2+vFhz1CkUnEtBDS3dTX
oKLcOelNm6+2WwlDu/T+pvxSxfzd/Pf9Q+xc9g62nIRagZAOXNrx9/mPWX/iOAT3/h+X7FGT1c4f
6X/jqm1vqkKPNp8t+rBv7q79OeM07UZvVA36qclxRO0uH4bfsTxQO0hD4WP2Iuw1y9ZSmoWLQyL9
p4yGFBSremSJAvxDoDkJ4h/CWvJp4/wyv8d/JHW2q6fcTGCKYeuN/RcFJKUrXg4VqU70yqWOQF1s
0ywziLI2S7WdY+rrcwW5L3DFY2dXX9yXQFagtVSRUrtluLFdE8vvb8GDionl97aWyFEZRfsr04N9
aU8tq7fvvAYmX9X5fsQZf1P9L+xRS+lsdTEKpcyxTBUaKaVJGSQklSCXanIV75IwEo3szOMThfpF
dw/YyHMVwXYq7FXYq7FXYq7FXYq7FXYq7FXYq7FXYq7FXYq7FXYq7FXYq7FXYq7FUHdR3KXcVxBx
I4lJUcMSRWo4lQ3HvXx28MsiRVFtgQYkFiGo2WrNqzGRDWV6q1G9Mjx5lRSn0U/HM2E48LtMWSHB
t0ZK1/PFbn1pbf0lX43kd/s035NxGYvACdrcAYwTsC1Bq8koKxT2spj+GQq7khh1BouxxOOuYKyw
gcxIJZ5i/SE9qeLRslSzJEXJrRQDQrvQA/f9ItwcILkabhEuqlpOj6jJbRCaJEAK+mZUbmtTV3Wq
EqadPiG/z3lkyxB2ZZs8ATR/HzTDWbW1RuUcSpM0/quREGLj0jWvwsDVqbnvlWKR+z9LRgnI8ztX
f5oaS5jtX9Fn0uM0LKkpYNxAPxUIG2x6CmTEb39TYIGW/rXRofrUEh9BebxuxgQsrgMP92MnIU4g
/aocBOx5oJ9JG/Xn+q2TZiOvdirsVdirsVdirsVdirsVdirsVdirsVdirsVdirsVdirsVdirsVdi
rsVQepaibNY1jhNxczsVggUheRAqxLHoAN8sxw4vIBtxYuK7NAdUG2svRAJoRKf7xPTY8K9RUuvK
h2yfheTb4Hka/Hku/SV0yilCGG1bafcdyOPMEb+OPhj8EI8KI/6SCm17qPxRW8QEhAoVgkTr7yUA
+nDwx6/eyGOHMn7R+hw1DXl4pPaKHZSxCgOKLQN0kr+10Ax4IdD+Pkvh4uh/HyXWWus94LW7QRvI
xWL4WQ1HSqvv8Xb/AGsE8O1hGTT1HiimlzcQ20ElxM3GOJSzt1oBlMYkmg48YmRodUMl40ypMtjK
wYVRiYa0P/PT3yZjW1/f+pmYVtxD7f1LrbUIJriWz4NFPCFZon4/ZPQjiWGCUCBfRZ4iAJcwUXkG
p2KuxV2KuxV2KuxV2KuxV2KuxV2KuxV2KuxV2KuxV2KuxV2KuxV2KuxVKr//AHulY/sWUpjPgS3x
EfcMuh9P+c5OP6R/WCaKqqoVQAoFABsABlLjErG/3oT/AFH/AFrh6Mujl/3of/UT9bY9F6LLn++t
f+Mp/wCTT4Y8imPI+79IQ2uD/QS6gGdXj9A/tcy4+z13yeL6vJs0/wBXl1UtesReJbwtcPDG8hVw
pohCo0nxDav2PHDhnw2aZabJwWav8V+l1jYw/VovVUXsisWNyBHRzuNyD8XXv3xnM3tsuTIbNeny
3QLaYF1D64l4UcSrCttDxUqkjj4W4bbbnp2yzxPTVNwy+nh4el2fIMjzFcB2KuxV2KuxV2KuxV2K
uxV2KuxV2KuxV2KuxV2KuxV2KuxV2KuxV2KuxVLtXs3n9GS3l9G8gLNDIY2kWjCjKwHZstxSrnyL
fgmI2CLiUIbO8VE9ItG4ADqstwsRI68U4Hjv2GT4h1/Q28cev3C/vWzR3kXGSSSTc8Bxa5b7R/yU
O23XCCD+AmJidhX+x/WsSTVmha4tp5G2ChGjbltuBSSFW/a7nCRG6I/HzSRC6I+39Ul4j8wyGN5Z
o0ZFNOMb8gW61JRlqOlQMFwHIIvELoH5/tbtdNn+upcX0rTCJuUQpIaNuB1UADeu3fwG2Msgqoon
lHDURXyTS+sUvI1jd2QKSfg413Ur+0rdmPTKYT4XHx5DE2h/0Bp38rbdPiOS8aTP8zNuPRLSKQPE
zpurMvwkEoeQ+0pI+g4nKTzU6iRFFMMqaHYq7FXYq7FXYq7FXYq7FXYq7FXYq7FXYq7FXYq7FXYq
7FXYq7FXYq7FVi3EDKGWRSp6EMKYeEsuE9zjPCDQyKDtsSO9afqxoo4S19atuPL1U4+PIU8MeEp4
D3LlkjYkKwJHUA1xpFFdgQ7FXYq7FXYq7FXYq7FXYq7FXYq7FXYq7FXYq7FXYq7FXYq7FXYq7FXY
q7FXYq7FXYq7FWM3Q8sRG4ittHS9ktf79IYI6I3QcuXEn5qDmXHxDRMqvzdhDxjRM+G+VkoaR7J4
4pZtCswHWieszJSnxBeUluqVP+tkxfSZ/HxbAJAkDJL4fslaIsZfJ1xIyS2Fva3EZHL1o4uNR3WZ
eSN/wVcjMZRyJI/HRhkGeI2kSPK/u5p3YWGkwAz2EEKCUbywqvxD/WXr0zHnOR2kS4eTJM7SJ272
73S7W8ZHmMisgIBilkj2JBoeDLXpghkMeS480ocq+QKAnsPL9lMHubtoHZvURJruRRWtaqrOB1y0
TnIbC/g3RyZZjYX7oj9SIi8yaBISBfwrxp/eOI618OfGv0ZA4JjoWB0uUfwlMgQwBBqDuCOlMqcd
2KuxVZLKI+JagUmjMTQAAE1/DCBaQLQMepX1xze0tEltw7JHK03HnxNCwAVtq9N8sOOI5nf3N5xR
j9R39zY1O4iuYor63S3jm5BJhKHHJRXiaqlKiuPhgiwbR4QIJibryTDKmh2KuxV2KuxV2KuxV2Ku
xV2KuxV2KuxV2KuxV2KuxV2KuxVi/mTR7me3MMd7FChlaeOOVghqxq24pWhrSuZmDKAbp2OlziJs
xJ2pXt5L+K1gijvbd/RVQrO6ioC8a1BfIyESSaLCQiSSYndA61Fdata+kL6BZImoRzRRXbkpIatP
oyzERA3RbsBjilfCd038t6OunW8hEqS+txq0QAUla1O3U1PXKM+XiLi6rPxnlVI7VPU/R1wIywco
QGjNHA7lNx8QHTfrleP6g04a4xbC7q5srbV7WytLQrGhUtdKHS5fl8TVZONafI9Nsz4xJiST8Ojt
oQlKBlI/DoyB2015K/6WFdCsoLyMG6AcgzMDtXMYcXk4Q4wP4fsSLULn9AoraO08cUhPqCTeME+C
EcAduwrmRCPifXTmYo+N/eVbJPLd/qF3bP8AXKsyceMhj9Nm5Ak1FSDTxFPlmLnhGJ2cDVY4xPp/
Wm+UOKlfmGC4mtFEUqIilmlR0D8wEYgb9P60y7CQDu5OmkBLcJRaWkNvEyi0mIYn4RBHcBCNiAxS
Pv23y+Uieo+dOTOZkeY+ZH6SsvbSKZhILSRfTUsI3hSFQFIJfjwblSo/awxkR1+22WOZG1/bf6WX
AAAACgGwAzBdW7FXYq7FXYq7FXYq7FXYq7FXYq7FXYq7FXYq7FXYq7FXYqx+3g02W+vZbyQLI8jo
5LmKoViAlQVLARhDStPir3zKkZAAD8fjdzpSmIxER09/43v5IhrDSJPWWNvU4RBgomdqEct/tH2y
HHIV+prGTIKvv7lS50bSfUtl+qxLykKkhFDH90/7QHLtXrgjllvuxhnnR3PL9IWaHFZQXN7b6ewa
yX02UKxZVkYEOqsa9lU9cOYkgGXNlqDIiJl9W/yTK7uY7W2luJK8IlLkDqaDoPc9sqjGzTjwgZEA
dUoOo6hMFL2PGQEhkMbTKlCQR6gK1NV7Ll3BEdf0OV4UR/F9tfYseO7eRZ30yJpFIVZOEdQQxUCv
q+LH78II5cX4+SQYgVxH7f1OE+uoUWTTYPVIJQpxoWU1HVxxPTufHGofzivDjPKRr8eSZaTqMl7C
/rQtb3MTcJoW6g0qGFexGVZIcJ2NhozYhA7GwUblbS08aSKVcBlOxB99sINJBpIPU025Ro7eMQww
uyq73DW4elVLRmMuWTrvtv03GZNSHP7rc2px3O5PlfzvqqWh0s3EOnyxF5KGSGUymdGKEGgkJ5cg
D3XIy4q4h+pjPjozB+yvsTzMdw3Yq7FXYq7FXYq7FXYq7FXYq7FXYq7FXYq7FXYq7FXYq7FUhvrf
S5b5yYJri7lUidYCgIRG4qX+Jf8AYnrmTCUhHmAHNxymI8wIjvUo9N0q5lNpIlxayKokSOdh8Smo
JWjN0pvhOSQF7Fkcs4jiFH3IWKx8tu0hSKaVBIyI7SxKjFTQ+mHdKr8PWmTM8nl9rYcmUcyB8D9u
yd6ANOFgDYVWAk8on2dHBowfvyFKb5j5uLi9Tianj4vVzRGq28lxp08UQrKVrGviynkBv4kUyOM1
IEsMMhGYJ5Jbb64YoVDWxSMs1FkcJKKkni0bDlX3PXx3y2WGzzb5aezz/V81/wCnIPT4+jJXnz+1
F058v9+eGPgnv+9H5c3zH293uUn8zWM0kTxxzOkRdzRV3IUqKEsFNeR6HthGAhkNJIAgkbovRXnu
Gub6WEwC4ZRHGxqeMYpy7da5DKAKiDdNWcCNRBukzylx0LqsayaZdIwqPScgVI3AqOnvk8ZqQbMJ
qY96UWJ0axNxDA7Rxk0ZZVdlNNvhUGgp/qg5fPjlRLlZPEnRKldwaTf6gJTzmuOcNCOax8eao1AW
JX4W7UGGJlGNdN2UJThGuQ3ZNmI692KuxV2KuxV2KuxV2KuxV2KuxV2KuxV2KuxV2KuxV2KuxVid
9ok66lcXEdv6hYkiSTm4IO1PhLV+7bM2GUcIFuzx6gcABKppWkyDVIrmW1ULxcMwVuNCpTjR6U+7
fBkyemgWObMOAgFXs9NvoLf01063TmAJQH4lyF4FnCfCS38cjLJEn6iwnliTfEUw0SyNrDMDax2h
eSojiC8aKirUcfEgnfKss7I3to1GTiI34kwZVZSrAMp6g7g5U0A0s+r2/wDvpP8AgRh4iy4j3qJ0
rTDcfWfqsXrmlZOC8iQKAk07DbJeJKqvZl406qzSt9Xt/wDfSf8AAjI8RY8R71yRRoSURVJ60AFa
fLElBJK7Ahp0SRGR1DowoysKgg9iDiDSQa3CxLW2jUKkKIq14hVAAqamlMJkSkzJ5la1naOVLwRs
UNVJRTQ9ajb2w8R71E5DqrZFi7FXYq7FXYq7FXYq/wD/2Q==</xmpGImg:image>
               </rdf:li>
            </rdf:Alt>
         </xmp:Thumbnails>
         <dc:format>image/svg+xml</dc:format>
         <xmpMM:RenditionClass>proof:pdf</xmpMM:RenditionClass>
         <xmpMM:DocumentID>xmp.did:49c1f2dd-871a-4f43-ba70-bbec991f9520</xmpMM:DocumentID>
         <xmpMM:InstanceID>xmp.iid:49c1f2dd-871a-4f43-ba70-bbec991f9520</xmpMM:InstanceID>
         <xmpMM:OriginalDocumentID>xmp.did:873c7c46-b4be-4e47-8480-59bc550ea4a1</xmpMM:OriginalDocumentID>
         <xmpMM:DerivedFrom
   rdf:parseType="Resource">
            <stRef:instanceID>xmp.iid:17a05a30-99af-41ea-a469-f79f98405bc1</stRef:instanceID>
            <stRef:documentID>xmp.did:17a05a30-99af-41ea-a469-f79f98405bc1</stRef:documentID>
            <stRef:originalDocumentID>xmp.did:873c7c46-b4be-4e47-8480-59bc550ea4a1</stRef:originalDocumentID>
            <stRef:renditionClass>proof:pdf</stRef:renditionClass>
         </xmpMM:DerivedFrom>
         <xmpMM:History>
            <rdf:Seq>
               <rdf:li
   rdf:parseType="Resource">
                  <stEvt:action>saved</stEvt:action>
                  <stEvt:instanceID>xmp.iid:873c7c46-b4be-4e47-8480-59bc550ea4a1</stEvt:instanceID>
                  <stEvt:when>2019-01-06T12:41:12-07:00</stEvt:when>
                  <stEvt:softwareAgent>Adobe Illustrator CC 23.0 (Macintosh)</stEvt:softwareAgent>
                  <stEvt:changed>/</stEvt:changed>
               </rdf:li>
               <rdf:li
   rdf:parseType="Resource">
                  <stEvt:action>saved</stEvt:action>
                  <stEvt:instanceID>xmp.iid:49c1f2dd-871a-4f43-ba70-bbec991f9520</stEvt:instanceID>
                  <stEvt:when>2019-11-21T05:58:46-07:00</stEvt:when>
                  <stEvt:softwareAgent>Adobe Illustrator CC 23.1 (Macintosh)</stEvt:softwareAgent>
                  <stEvt:changed>/</stEvt:changed>
               </rdf:li>
            </rdf:Seq>
         </xmpMM:History>
         <xmpTPg:MaxPageSize
   rdf:parseType="Resource">
            <stDim:w>1500.000000</stDim:w>
            <stDim:h>875.000000</stDim:h>
            <stDim:unit>Pixels</stDim:unit>
         </xmpTPg:MaxPageSize>
         <xmpTPg:NPages>1</xmpTPg:NPages>
         <xmpTPg:HasVisibleTransparency>False</xmpTPg:HasVisibleTransparency>
         <xmpTPg:HasVisibleOverprint>False</xmpTPg:HasVisibleOverprint>
         <xmpTPg:Fonts>
            <rdf:Bag>
               <rdf:li
   rdf:parseType="Resource">
                  <stFnt:fontName>Poppins-SemiBold</stFnt:fontName>
                  <stFnt:fontFamily>Poppins</stFnt:fontFamily>
                  <stFnt:fontFace>SemiBold</stFnt:fontFace>
                  <stFnt:fontType>TrueType</stFnt:fontType>
                  <stFnt:versionString>Version 3.010;PS 1.000;hotconv 16.6.54;makeotf.lib2.5.65590</stFnt:versionString>
                  <stFnt:composite>False</stFnt:composite>
                  <stFnt:fontFileName>Poppins-SemiBold.ttf</stFnt:fontFileName>
               </rdf:li>
               <rdf:li
   rdf:parseType="Resource">
                  <stFnt:fontName>Rubik-Regular</stFnt:fontName>
                  <stFnt:fontFamily>Rubik</stFnt:fontFamily>
                  <stFnt:fontFace>Regular</stFnt:fontFace>
                  <stFnt:fontType>TrueType</stFnt:fontType>
                  <stFnt:versionString>Version 2.000</stFnt:versionString>
                  <stFnt:composite>False</stFnt:composite>
                  <stFnt:fontFileName>Rubik-Regular.ttf</stFnt:fontFileName>
               </rdf:li>
            </rdf:Bag>
         </xmpTPg:Fonts>
         <xmpTPg:PlateNames>
            <rdf:Seq>
               <rdf:li>Cyan</rdf:li>
               <rdf:li>Magenta</rdf:li>
               <rdf:li>Yellow</rdf:li>
               <rdf:li>Black</rdf:li>
            </rdf:Seq>
         </xmpTPg:PlateNames>
         <xmpTPg:SwatchGroups>
            <rdf:Seq>
               <rdf:li
   rdf:parseType="Resource">
                  <xmpG:groupName>Default Swatch Group</xmpG:groupName>
                  <xmpG:groupType>0</xmpG:groupType>
                  <xmpG:Colorants>
                     <rdf:Seq>
                        <rdf:li
   rdf:parseType="Resource">
                           <xmpG:swatchName>AutoCAD Color</xmpG:swatchName>
                           <xmpG:type>PROCESS</xmpG:type>
                           <xmpG:tint>100.000000</xmpG:tint>
                           <xmpG:mode>RGB</xmpG:mode>
                           <xmpG:red>128</xmpG:red>
                           <xmpG:green>0</xmpG:green>
                           <xmpG:blue>255</xmpG:blue>
                        </rdf:li>
                        <rdf:li
   rdf:parseType="Resource">
                           <xmpG:swatchName>AutoCAD Color 2</xmpG:swatchName>
                           <xmpG:type>PROCESS</xmpG:type>
                           <xmpG:tint>100.000000</xmpG:tint>
                           <xmpG:mode>RGB</xmpG:mode>
                           <xmpG:red>102</xmpG:red>
                           <xmpG:green>204</xmpG:green>
                           <xmpG:blue>255</xmpG:blue>
                        </rdf:li>
                        <rdf:li
   rdf:parseType="Resource">
                           <xmpG:swatchName>AutoCAD Color 3</xmpG:swatchName>
                           <xmpG:type>PROCESS</xmpG:type>
                           <xmpG:tint>100.000000</xmpG:tint>
                           <xmpG:mode>RGB</xmpG:mode>
                           <xmpG:red>254</xmpG:red>
                           <xmpG:green>204</xmpG:green>
                           <xmpG:blue>102</xmpG:blue>
                        </rdf:li>
                        <rdf:li
   rdf:parseType="Resource">
                           <xmpG:swatchName>AutoCAD Color 4</xmpG:swatchName>
                           <xmpG:type>PROCESS</xmpG:type>
                           <xmpG:tint>100.000000</xmpG:tint>
                           <xmpG:mode>RGB</xmpG:mode>
                           <xmpG:red>255</xmpG:red>
                           <xmpG:green>0</xmpG:green>
                           <xmpG:blue>255</xmpG:blue>
                        </rdf:li>
                     </rdf:Seq>
                  </xmpG:Colorants>
               </rdf:li>
            </rdf:Seq>
         </xmpTPg:SwatchGroups>
      </rdf:Description>
   </rdf:RDF>
</x:xmpmeta>
                                                                                                    
                                                                                                    
                                                                                                    
                                                                                                    
                                                                                                    
                                                                                                    
                                                                                                    
                                                                                                    
                                                                                                    
                                                                                                    
                                                                                                    
                                                                                                    
                                                                                                    
                                                                                                    
                                                                                                    
                                                                                                    
                                                                                                    
                                                                                                    
                                                                                                    
                                                                                                    
                           
<?xpacket end="w"?>
	</metadata>


<g
   id="N-TEXT"
   transform="translate(-15.635906,-24.680654)">
</g>


<g
   id="g3695"
   transform="rotate(-90,266.98197,682.25352)"><g
     id="POLYLINE_1455_"
     style="fill:none;stroke:#000000;stroke-opacity:0.50490195">
		
			<path
   fill="none"
   stroke="#f368e0"
   stroke-width="2.75"
   stroke-linecap="round"
   stroke-linejoin="round"
   stroke-miterlimit="10"
   d="m 671.156,443.869 c 7.216,-0.018 14.432,-0.035 21.648,-0.053 5.62,-0.014 11.25,-0.204 16.842,-0.781 6.309,-0.651 12.55,-1.815 18.824,-2.726 6.164,-0.895 12.365,-1.363 18.586,-1.609 5.269,-0.208 10.56,-0.319 15.833,-0.261 5.939,0.065 11.878,0.131 17.817,0.196 9.377,0.103 18.755,0.206 28.132,0.309 6.262,0.069 12.524,0.138 18.787,0.207 5.468,0.06 10.937,0.199 16.403,0.336 5.99,0.151 12.024,0.334 17.989,0.939 5.145,0.521 10.138,1.576 14.694,4.106 5.246,2.913 9.799,7.017 13.991,11.267 4.227,4.285 8.125,8.895 11.766,13.685 3.916,5.151 7.523,10.522 10.991,15.981 3.356,5.282 6.475,10.719 9.387,16.258 2.925,5.564 5.574,11.263 8.012,17.056 2.439,5.795 4.62,11.717 6.519,17.711 1.903,6.005 3.588,12.077 4.946,18.23 1.335,6.048 2.458,12.15 3.276,18.291 0.839,6.291 1.464,12.606 1.712,18.95 0.248,6.343 0.231,12.702 -0.027,19.044 -0.251,6.193 -0.883,12.37 -1.717,18.51 -0.84,6.18 -1.959,12.329 -3.325,18.414 -1.395,6.209 -3.084,12.35 -5.038,18.407 -1.961,6.081 -4.202,12.07 -6.68,17.958 -2.415,5.738 -5.085,11.37 -8,16.871 -2.944,5.555 -6.103,10.989 -9.475,16.295 -3.376,5.314 -6.913,10.534 -10.736,15.538 -3.77,4.935 -7.806,9.67 -12.193,14.068 -4.132,4.142 -8.654,8.139 -13.839,10.915 -4.587,2.456 -9.622,3.437 -14.761,3.922 -5.787,0.546 -11.637,0.762 -17.446,0.887 -6.253,0.135 -12.509,0.182 -18.763,0.273 -8.73,0.127 -17.461,0.254 -26.191,0.382 -3.912,0.057 -7.824,0.104 -11.737,0.144 -8.094,0.083 -16.188,0.167 -24.282,0.25 -5.72,0.059 -11.45,-0.078 -17.165,-0.304 -6.143,-0.243 -12.263,-0.79 -18.344,-1.695 -6.276,-0.934 -12.527,-2.071 -18.847,-2.683 -5.546,-0.537 -11.121,-0.682 -16.691,-0.695 -6.966,-0.017 -13.932,-0.034 -20.898,-0.051"
   id="path1937"
   style="fill:none;stroke:#000000;stroke-opacity:0.50490195" />
	</g><g
     id="POLYLINE_1454_"
     style="fill:none;stroke:#000000;stroke-opacity:0.50490195">
		
			<path
   fill="none"
   stroke="#f368e0"
   stroke-width="2.75"
   stroke-linecap="round"
   stroke-linejoin="round"
   stroke-miterlimit="10"
   d="m 644.933,758.549 c -3.414,0.123 -6.827,0.245 -10.241,0.368 -7.29,0.262 -14.581,0.524 -21.871,0.786 -6.742,0.242 -13.484,0.484 -20.226,0.726 -2.361,0.085 -4.721,0.184 -7.083,0.244 -5.724,0.146 -11.448,0.293 -17.172,0.439 -7.063,0.181 -14.126,0.361 -21.189,0.542 -2.46,0.063 -4.92,0.128 -7.381,0.164 -6.291,0.094 -12.581,0.188 -18.872,0.282 -6.841,0.102 -13.683,0.204 -20.524,0.307 -2.62,0.039 -5.236,0.062 -7.856,0.058 -7.106,-0.009 -14.213,-0.018 -21.319,-0.027 -3.437,-0.004 -6.879,0.047 -10.316,-0.025 -4.778,-0.1 -9.556,-0.2 -14.334,-0.3 -7.567,-0.158 -15.134,-0.316 -22.7,-0.475 -5.592,-0.117 -11.184,-0.234 -16.777,-0.351 -3.867,-0.081 -7.734,-0.112 -11.602,-0.119 -4.96,-0.008 -9.922,0.096 -14.873,0.41 -5.441,0.345 -10.866,0.955 -16.29,1.494 -4.805,0.478 -9.612,0.834 -14.436,1.064 -5.022,0.239 -10.048,0.403 -15.075,0.488 -4.879,0.083 -9.761,0.15 -14.64,0.155 -4.76,0.005 -9.52,0.042 -14.28,0.002 -6.561,-0.055 -13.122,-0.11 -19.682,-0.166 -4.277,-0.036 -8.556,-0.039 -12.833,-0.115 -5.192,-0.093 -10.386,-0.148 -15.577,-0.288 -5.74,-0.155 -11.48,-0.291 -17.217,-0.536 -4.671,-0.199 -9.409,-0.53 -13.965,-1.634 -4.873,-1.181 -9.432,-3.324 -13.967,-5.41 -4.959,-2.281 -9.901,-4.601 -14.849,-6.908 -3.917,-1.827 -7.833,-3.64 -11.783,-5.393 -5.2,-2.308 -10.434,-4.552 -15.598,-6.941 -4.074,-1.885 -8.304,-3.714 -11.463,-7.004 -3.253,-3.387 -5.66,-7.62 -7.895,-11.717 -2.404,-4.406 -4.587,-8.943 -6.589,-13.545 -2.096,-4.817 -4.07,-9.684 -5.877,-14.618 -1.721,-4.698 -3.299,-9.452 -4.745,-14.242 -1.461,-4.844 -2.807,-9.726 -4.012,-14.64 -1.251,-5.103 -2.383,-10.233 -3.371,-15.393 -0.973,-5.079 -1.802,-10.184 -2.451,-15.315 -0.622,-4.918 -1.012,-9.863 -1.222,-14.815 -0.212,-5.018 -0.362,-10.058 -0.345,-15.08 0.018,-5.393 0.149,-10.796 0.401,-16.183 0.234,-4.997 0.693,-9.986 1.352,-14.945 0.683,-5.135 1.559,-10.24 2.547,-15.325 0.938,-4.831 2.013,-9.642 3.213,-14.414 1.241,-4.939 2.561,-9.863 4.069,-14.728 1.545,-4.982 3.174,-9.933 4.998,-14.821 1.775,-4.756 3.666,-9.471 5.729,-14.11 2.099,-4.719 4.341,-9.382 6.858,-13.894 2.235,-4.005 4.657,-8.184 8.005,-11.375 3.288,-3.133 7.676,-4.935 11.757,-6.784 5.308,-2.405 10.655,-4.729 15.981,-7.093 4.039,-1.793 8.034,-3.675 12.039,-5.542 4.931,-2.299 9.859,-4.603 14.802,-6.877 4.354,-2.003 8.775,-3.93 13.48,-4.939 4.658,-1 9.458,-1.253 14.206,-1.444 5.577,-0.224 11.157,-0.366 16.738,-0.505 5.12,-0.128 10.243,-0.202 15.364,-0.276 4.659,-0.068 9.32,-0.08 13.979,-0.119 6.191,-0.052 12.382,-0.104 18.574,-0.156 4.842,-0.041 9.686,0.002 14.529,0.008 4.669,0.006 9.344,0.064 14.012,0.16 5.479,0.112 10.953,0.299 16.427,0.56 4.845,0.231 9.669,0.674 14.494,1.154 5.303,0.527 10.605,1.106 15.928,1.408 5.097,0.289 10.2,0.334 15.304,0.325 3.536,-0.006 7.072,-0.058 10.607,-0.131 5.913,-0.124 11.826,-0.247 17.74,-0.371 7.521,-0.157 15.043,-0.315 22.564,-0.472 4.366,-0.091 8.732,-0.202 13.099,-0.274 3.876,-0.063 7.757,-0.015 11.633,-0.02 6.892,-0.009 13.784,-0.017 20.676,-0.026 2.662,-0.003 5.322,0.037 7.984,0.077 7.053,0.105 14.106,0.211 21.159,0.316 5.952,0.089 11.904,0.178 17.855,0.267 2.622,0.039 5.243,0.118 7.864,0.185 7.231,0.185 14.463,0.37 21.694,0.555 5.305,0.136 10.609,0.271 15.914,0.407 2.571,0.066 5.142,0.18 7.712,0.272 6.964,0.25 13.928,0.5 20.892,0.75 7.149,0.257 14.299,0.514 21.448,0.77 2.957,0.106 5.914,0.212 8.871,0.319"
   id="path1940"
   style="fill:none;stroke:#000000;stroke-opacity:0.50490195" />
	</g><g
     id="POLYLINE_1453_"
     style="fill:none;stroke:#000000;stroke-opacity:0.50490195">
		
			<path
   fill="none"
   stroke="#f368e0"
   stroke-width="2.75"
   stroke-linecap="round"
   stroke-linejoin="round"
   stroke-miterlimit="10"
   d="m 147.304,529.319 c -1.673,4.506 -3.368,9.002 -4.796,13.594 -1.394,4.481 -2.491,9.044 -3.374,13.652 -0.88,4.59 -1.603,9.222 -2.175,13.86 -0.601,4.873 -1.147,9.75 -1.504,14.648 -0.368,5.054 -0.376,10.121 -0.458,15.186 -0.073,4.489 0.04,9.014 0.249,13.499 0.222,4.769 0.691,9.532 1.241,14.274 0.555,4.784 1.217,9.56 2.037,14.306 0.799,4.624 1.753,9.22 3.015,13.741 1.262,4.523 2.82,8.949 4.453,13.349 0.437,1.178 0.874,2.355 1.311,3.533"
   id="path1943"
   style="fill:none;stroke:#000000;stroke-opacity:0.50490195" />
	</g><g
     id="POLYLINE_1452_"
     style="fill:none;stroke:#000000;stroke-opacity:0.50490195">
		
			<path
   fill="none"
   stroke="#f368e0"
   stroke-width="2.75"
   stroke-linecap="round"
   stroke-linejoin="round"
   stroke-miterlimit="10"
   d="m 434.348,498.082 c 0,3.42 0,6.841 0,10.261 0,8.213 0,16.426 0,24.638 0,9.932 0,19.865 0,29.797 0,8.579 0,17.158 0,25.737 0,4.153 0,8.306 0,12.459 0,2.756 0,5.512 0,8.268 0,7.772 0,15.544 0,23.316 0,9.887 0,19.774 0,29.66 0,8.91 0,17.82 0,26.73 0,4.854 0,9.709 0,14.563 0,0.229 0,0.457 0,0.686"
   id="path1946"
   style="fill:none;stroke:#000000;stroke-opacity:0.50490195" />
	</g><g
     id="POLYLINE_1451_"
     style="fill:none;stroke:#000000;stroke-opacity:0.50490195">
		
			<path
   fill="none"
   stroke="#f368e0"
   stroke-width="2.75"
   stroke-linecap="round"
   stroke-linejoin="round"
   stroke-miterlimit="10"
   d="m 568.119,489.897 c 1.557,6.995 3.164,13.988 4.471,21.035 1.376,7.418 2.475,14.869 3.395,22.357 0.857,6.973 1.563,13.97 2.153,20.971 0.636,7.55 1.146,15.105 1.511,22.673 0.353,7.31 0.484,14.626 0.542,21.943 0.058,7.392 -0.119,14.783 -0.355,22.17 -0.225,7.013 -0.678,14.026 -1.214,21.021 -0.565,7.36 -1.256,14.71 -2.07,22.047 -0.817,7.364 -1.8,14.704 -3.027,22.011 -1.165,6.935 -2.635,13.817 -4.163,20.679 -0.414,1.859 -0.828,3.719 -1.242,5.578"
   id="path1949"
   style="fill:none;stroke:#000000;stroke-opacity:0.50490195" />
	</g><g
     id="POLYLINE_1450_"
     style="fill:none;stroke:#000000;stroke-opacity:0.50490195">
		
			<path
   fill="none"
   stroke="#f368e0"
   stroke-width="2.75"
   stroke-linecap="round"
   stroke-linejoin="round"
   stroke-miterlimit="10"
   d="m 730.835,472.188 c 2.474,3.675 4.942,7.346 7.137,11.197 2.167,3.802 4.075,7.74 5.888,11.72 1.908,4.189 3.664,8.445 5.392,12.711 1.651,4.073 3.191,8.191 4.696,12.32 1.504,4.127 2.931,8.284 4.22,12.483 1.281,4.172 2.396,8.39 3.384,12.641 0.974,4.188 1.801,8.417 2.513,12.658 0.768,4.571 1.439,9.152 2.015,13.751 0.551,4.407 0.972,8.829 1.314,13.256 0.336,4.351 0.545,8.718 0.619,13.081 0.073,4.33 0,8.668 -0.226,12.993 -0.229,4.386 -0.536,8.768 -0.986,13.137 -0.468,4.54 -1.018,9.068 -1.679,13.584 -0.635,4.333 -1.363,8.654 -2.215,12.95 -0.887,4.469 -1.902,8.911 -3.094,13.31 -1.151,4.246 -2.485,8.435 -3.895,12.6 -1.429,4.218 -2.983,8.397 -4.573,12.557 -1.612,4.218 -3.326,8.394 -5.078,12.555 -1.695,4.027 -3.515,8.006 -5.467,11.915 -1.88,3.763 -3.986,7.408 -6.268,10.941 -1.205,1.866 -2.457,3.701 -3.697,5.544"
   id="path1952"
   style="fill:none;stroke:#000000;stroke-opacity:0.50490195" />
	</g><g
     id="POLYLINE_1449_"
     style="fill:none;stroke:#000000;stroke-opacity:0.50490195">
		
			<path
   fill="none"
   stroke="#f368e0"
   stroke-width="2.75"
   stroke-linecap="round"
   stroke-linejoin="round"
   stroke-miterlimit="10"
   d="m 188.28,601.14 c -0.068,7.13 0.212,14.253 0.79,21.36 0.562,6.903 1.538,13.766 3.134,20.509 1.591,6.723 3.736,13.351 6.567,19.658 2.775,6.183 6.449,11.987 11.429,16.633 5.04,4.702 11.123,8.149 17.694,10.199 6.556,2.045 13.444,2.86 20.245,3.62 7.078,0.79 14.165,1.495 21.261,2.105 6.326,0.543 12.655,1.09 18.992,1.487 9.348,0.585 18.696,1.171 28.044,1.756 2.855,0.179 5.709,0.367 8.566,0.5 4.621,0.215 9.241,0.429 13.862,0.644 7.842,0.364 15.685,0.729 23.527,1.093 9.868,0.458 19.736,0.917 29.604,1.375 10.826,0.503 21.652,1.006 32.478,1.509 10.493,0.487 20.985,0.975 31.478,1.462 9.119,0.424 18.238,0.847 27.357,1.271 6.475,0.301 12.95,0.602 19.425,0.902 2.741,0.127 5.484,0.235 8.224,0.382 6.137,0.329 12.282,0.699 18.409,1.18 7.835,0.614 15.664,1.248 23.486,2.01 7.722,0.752 15.432,1.646 23.147,2.469 5.087,0.543 10.164,1.192 15.244,1.798 10.198,1.216 20.397,2.433 30.595,3.649 4.068,0.485 8.14,0.942 12.201,1.487 8.636,1.159 17.273,2.318 25.909,3.476 8.861,1.189 17.722,2.378 26.583,3.567 5.454,0.732 10.923,1.371 16.403,1.881 7.176,0.668 14.363,1.17 21.574,1.141 7.093,-0.028 14.156,-0.655 21.17,-1.689 7.09,-1.045 14.112,-2.532 21.109,-4.069 7.071,-1.553 14.103,-3.286 21.126,-5.041 6.46,-1.614 12.9,-3.326 19.321,-5.088 7.645,-2.098 15.27,-4.245 22.882,-6.457 6.413,-1.863 12.807,-3.874 19.115,-6.066 6.906,-2.4 13.766,-4.913 20.526,-7.701 6.565,-2.708 13.057,-5.609 19.405,-8.795 6.224,-3.124 12.382,-6.497 18.061,-10.541 5.238,-3.73 9.732,-8.195 12.829,-13.875 3.265,-5.99 5.276,-12.624 7.005,-19.193 1.786,-6.787 3.117,-13.717 4.006,-20.678 0.857,-6.706 1.206,-13.526 1.131,-20.286 -0.08,-7.132 -0.368,-14.235 -1.361,-21.306 -0.97,-6.911 -2.354,-13.781 -4.189,-20.515 -1.778,-6.524 -3.891,-13.15 -7.371,-18.988 -3.343,-5.609 -8.165,-9.888 -13.519,-13.532 -5.849,-3.981 -12.123,-7.308 -18.458,-10.439 -6.26,-3.095 -12.669,-5.893 -19.137,-8.523 -6.433,-2.615 -12.951,-5.042 -19.533,-7.258 -6.576,-2.214 -13.191,-4.325 -19.858,-6.248 -7.856,-2.267 -15.721,-4.473 -23.606,-6.637 -6.343,-1.741 -12.716,-3.392 -19.099,-4.979 -6.943,-1.726 -13.897,-3.421 -20.891,-4.929 -7.117,-1.535 -14.25,-3.01 -21.466,-4.007 -6.856,-0.947 -13.771,-1.447 -20.693,-1.407 -7.344,0.042 -14.667,0.607 -21.972,1.322 -5.274,0.516 -10.534,1.171 -15.786,1.876 -9.292,1.247 -18.583,2.493 -27.875,3.74 -8.082,1.084 -16.164,2.169 -24.246,3.253 -4.465,0.599 -8.946,1.085 -13.418,1.619 -10.199,1.216 -20.398,2.433 -30.597,3.649 -4.901,0.585 -9.8,1.19 -14.708,1.714 -7.573,0.808 -15.141,1.707 -22.724,2.407 -7.888,0.728 -15.773,1.414 -23.673,2.009 -5.728,0.431 -11.474,0.788 -17.21,1.081 -3.083,0.157 -6.168,0.287 -9.252,0.43 -6.723,0.312 -13.447,0.625 -20.17,0.937 -9.245,0.429 -18.49,0.859 -27.736,1.288 -10.587,0.492 -21.175,0.984 -31.762,1.475 -10.765,0.5 -21.531,1 -32.296,1.5 -9.779,0.454 -19.558,0.909 -29.338,1.363 -7.629,0.354 -15.258,0.709 -22.887,1.063 -4.314,0.2 -8.629,0.401 -12.943,0.601 -3.345,0.155 -6.686,0.392 -10.028,0.601 -8.999,0.564 -17.998,1.127 -26.997,1.69 -6.723,0.421 -13.437,1.033 -20.148,1.61 -6.827,0.587 -13.652,1.285 -20.458,2.076 -6.875,0.799 -13.826,1.688 -20.398,3.955 -6.542,2.257 -12.562,5.992 -17.433,10.913 -4.726,4.775 -8.135,10.628 -10.775,16.766 -2.758,6.413 -4.84,13.137 -6.351,19.949 -1.528,6.89 -2.402,13.887 -2.925,20.919 -0.482,6.427 -0.689,12.874 -0.627,19.318 z"
   id="path1955"
   style="fill:none;stroke:#000000;stroke-opacity:0.50490195" />
	</g><g
     id="POLYLINE_1448_"
     style="fill:none;stroke:#000000;stroke-opacity:0.50490195">
		
			<path
   fill="none"
   stroke="#f368e0"
   stroke-width="2.75"
   stroke-linecap="round"
   stroke-linejoin="round"
   stroke-miterlimit="10"
   d="m 269.302,708.471 c -4.415,-1.855 -7.395,-5.144 -8.001,-9.975 -0.166,-1.327 -0.168,-2.676 -0.01,-4.004"
   id="path1958"
   style="fill:none;stroke:#000000;stroke-opacity:0.50490195" />
	</g><g
     id="POLYLINE_1355_"
     style="fill:none;stroke:#000000;stroke-opacity:0.50490195">
		
			<path
   fill="none"
   stroke="#f368e0"
   stroke-width="2.75"
   stroke-linecap="round"
   stroke-linejoin="round"
   stroke-miterlimit="10"
   d="m 356.175,763.783 c -5.32,-0.282 -10.632,-0.739 -15.849,-1.865 -5.172,-1.117 -10.239,-2.723 -15.182,-4.602 -2.402,-0.913 -4.782,-1.916 -7.065,-3.098 -1.615,-0.836 -3.278,-1.747 -4.613,-3.001 -2.038,-1.914 -1.714,-4.069 -1.094,-6.572 1.246,-5.028 3.07,-9.916 4.961,-14.732 0.267,-0.681 0.534,-1.361 0.801,-2.042"
   id="path1961"
   style="fill:none;stroke:#000000;stroke-opacity:0.50490195" />
	</g><g
     id="POLYLINE_1354_"
     style="fill:none;stroke:#000000;stroke-opacity:0.50490195">
		
			<path
   fill="none"
   stroke="#f368e0"
   stroke-width="2.75"
   stroke-linecap="round"
   stroke-linejoin="round"
   stroke-miterlimit="10"
   d="m 259.367,708.33 c 5.58,3.214 11.152,6.378 17.146,8.77 6.045,2.412 12.333,4.201 18.635,5.799 6.234,1.58 12.526,2.948 18.838,4.177 6.606,1.286 13.237,2.45 19.885,3.5 6.724,1.062 13.468,1.997 20.219,2.872 6.143,0.797 12.301,1.502 18.459,2.174 6.557,0.716 13.114,1.381 19.679,2.022 6.555,0.64 13.106,1.321 19.669,1.872 7.379,0.62 14.758,1.192 22.143,1.733 6.512,0.477 13.033,0.848 19.551,1.233 6.137,0.363 12.284,0.654 18.425,0.931 6.293,0.283 12.592,0.567 18.889,0.761 7.446,0.23 14.894,0.403 22.34,0.605 5.887,0.159 11.776,0.388 17.664,0.472 6.786,0.097 13.574,0.234 20.361,0.286 6.76,0.051 13.522,0.104 20.283,0.099 6.639,-0.006 13.281,-0.03 19.919,-0.104 6.302,-0.07 12.608,-0.148 18.908,-0.315 6.151,-0.162 12.306,-0.27 18.455,-0.518 8.756,-0.353 17.512,-0.705 26.268,-1.058 2.172,-0.088 4.345,-0.175 6.517,-0.262"
   id="path1964"
   style="fill:none;stroke:#000000;stroke-opacity:0.50490195" />
	</g><g
     id="POLYLINE_1353_"
     style="fill:none;stroke:#000000;stroke-opacity:0.50490195">
		
			<path
   fill="none"
   stroke="#f368e0"
   stroke-width="2.75"
   stroke-linecap="round"
   stroke-linejoin="round"
   stroke-miterlimit="10"
   d="m 706.856,758.988 c 0.128,-4.597 -1.081,-9.206 -3.52,-13.112 -1.565,-2.507 -3.732,-4.858 -6.55,-5.932 -2.149,-0.819 -4.505,-0.723 -6.708,-0.171 -4.004,1.002 -7.659,3.372 -10.64,6.175 -2.63,2.474 -4.829,5.419 -6.433,8.655 -0.265,0.535 -0.513,1.078 -0.745,1.628"
   id="path1967"
   style="fill:none;stroke:#000000;stroke-opacity:0.50490195" />
	</g><g
     id="POLYLINE_1352_"
     style="fill:none;stroke:#000000;stroke-opacity:0.50490195">
		
			<path
   fill="none"
   stroke="#f368e0"
   stroke-width="2.75"
   stroke-linecap="round"
   stroke-linejoin="round"
   stroke-miterlimit="10"
   d="m 911.433,685.445 c 0.323,-4.74 0.431,-9.476 0.37,-14.226"
   id="path1970"
   style="fill:none;stroke:#000000;stroke-opacity:0.50490195" />
	</g><g
     id="POLYLINE_1351_"
     style="fill:none;stroke:#000000;stroke-opacity:0.50490195">
		
			<path
   fill="none"
   stroke="#f368e0"
   stroke-width="2.75"
   stroke-linecap="round"
   stroke-linejoin="round"
   stroke-miterlimit="10"
   d="m 835.568,738.426 c -7.669,0.991 -15.337,1.992 -23.026,2.822 -8.098,0.874 -16.212,1.646 -24.331,2.296 -8.084,0.646 -16.177,1.195 -24.273,1.673 -7.266,0.429 -14.551,0.78 -21.828,0.938 -8.036,0.174 -16.069,0.324 -24.107,0.17 -1.051,-0.02 -2.101,-0.04 -3.152,-0.06"
   id="path1973"
   style="fill:none;stroke:#000000;stroke-opacity:0.50490195" />
	</g><g
     id="POLYLINE_1350_"
     style="fill:none;stroke:#000000;stroke-opacity:0.50490195">
		
			<path
   fill="none"
   stroke="#f368e0"
   stroke-width="2.75"
   stroke-linecap="round"
   stroke-linejoin="round"
   stroke-miterlimit="10"
   d="m 661.622,751.947 c 0,-3.692 0,-7.385 0,-11.077 0,-0.226 -0.166,-1.398 0,-1.566 0.056,-0.056 0.257,10e-4 0.345,-0.017 0.973,-0.189 2.178,0 3.165,0 8.859,0 17.719,0 26.578,0 2.622,0 5.243,0 7.865,0"
   id="path1976"
   style="fill:none;stroke:#000000;stroke-opacity:0.50490195" />
	</g><g
     id="POLYLINE_1349_"
     style="fill:none;stroke:#000000;stroke-opacity:0.50490195">
		
			<path
   fill="none"
   stroke="#f368e0"
   stroke-width="2.75"
   stroke-linecap="round"
   stroke-linejoin="round"
   stroke-miterlimit="10"
   d="m 175.858,739.848 c 1.364,-0.554 2.765,-1.103 3.885,-2.087 1.131,-0.994 1.835,-2.357 2.477,-3.694 1.132,-2.355 2.155,-4.751 3.572,-6.956 1.445,-2.25 3.16,-4.326 4.99,-6.271 3.468,-3.687 7.494,-7.267 12.115,-9.431 4.548,-2.13 9.704,-2.462 14.644,-2.773 5.655,-0.356 11.324,-0.417 16.988,-0.445 3.806,-0.019 7.603,-0.003 11.408,0.051 7.248,0.104 14.497,0.207 21.745,0.311 8.423,0.12 16.845,0.241 25.268,0.361 4.924,0.07 9.848,0.139 14.772,0.211 1.889,0.028 3.778,0.074 5.667,0.112 5.815,0.118 11.629,0.235 17.444,0.353 8.177,0.165 16.354,0.331 24.531,0.496 8.638,0.175 17.275,0.349 25.913,0.524 7.314,0.148 14.629,0.296 21.943,0.444 4.103,0.083 8.205,0.166 12.308,0.249 4.504,0.091 9.008,0.317 13.51,0.483 5.859,0.217 11.714,0.506 17.571,0.787 4.92,0.236 9.833,0.566 14.749,0.875 6.641,0.418 13.286,0.8 19.925,1.254 4.683,0.32 9.362,0.716 14.042,1.074 8.026,0.615 16.053,1.23 24.079,1.844 3.879,0.297 7.753,0.626 11.629,0.969 5.864,0.519 11.736,0.985 17.595,1.563 7.09,0.7 14.179,1.403 21.269,2.105 5.104,0.505 10.198,1.096 15.296,1.66 5.023,0.556 10.047,1.098 15.063,1.715 6.389,0.786 12.787,1.525 19.17,2.359 6.567,0.858 13.124,1.805 19.685,2.708 5.165,0.71 10.315,1.539 15.46,2.385 6.118,1.006 12.215,2.129 18.318,3.222 5.219,0.935 10.427,1.878 15.71,2.39 5.687,0.552 11.405,0.698 17.116,0.541 5.619,-0.155 11.237,-0.525 16.83,-1.084 6.199,-0.62 12.376,-1.369 18.552,-2.181 5.757,-0.757 11.49,-1.695 17.222,-2.623 5.75,-0.931 11.475,-2.037 17.194,-3.143 5.718,-1.106 11.403,-2.383 17.082,-3.666 5.481,-1.238 10.924,-2.651 16.354,-4.094 5.627,-1.495 11.219,-3.138 16.787,-4.837 5.399,-1.648 10.772,-3.412 16.109,-5.249 5.308,-1.827 10.571,-3.773 15.837,-5.718"
   id="path1979"
   style="fill:none;stroke:#000000;stroke-opacity:0.50490195" />
	</g><g
     id="POLYLINE_1348_"
     style="fill:none;stroke:#000000;stroke-opacity:0.50490195">
		
			<path
   fill="none"
   stroke="#f368e0"
   stroke-width="2.75"
   stroke-linecap="round"
   stroke-linejoin="round"
   stroke-miterlimit="10"
   d="m 211.967,740.805 c -3.81,0.535 -7.616,0.945 -11.47,0.803 -3.837,-0.141 -7.663,-0.713 -11.404,-1.565 -3.478,-0.792 -7.023,-1.827 -10.127,-3.622 -2.807,-1.623 -5.075,-3.951 -7.205,-6.363 -5.029,-5.695 -8.505,-12.534 -11.518,-19.455 -3.221,-7.398 -5.997,-14.998 -8.623,-22.625 -1.29,-3.747 -2.543,-7.52 -3.606,-11.338 -0.244,-0.875 -0.491,-1.756 -0.661,-2.65 -0.027,-0.142 -0.227,-0.833 -0.094,-0.958 0.275,-0.258 0.893,1.057 0.973,1.202 1.947,3.524 3.52,7.252 5.348,10.839 1.725,3.385 3.598,6.696 5.57,9.944 4.274,7.039 8.725,14.001 13.62,20.628 2.185,2.958 4.499,5.881 7.295,8.291 2.715,2.34 5.868,4.045 9.143,5.464 7.161,3.104 14.765,5.433 22.395,7.057 2.064,0.439 4.146,0.786 6.218,1.182 0.723,0.138 2.109,0.2 2.721,0.724 0.914,0.781 -2.641,1.386 -2.969,1.457 -1.855,0.402 -3.73,0.696 -5.606,0.985 z"
   id="path1982"
   style="fill:none;stroke:#000000;stroke-opacity:0.50490195" />
	</g><g
     id="POLYLINE_1347_"
     style="fill:none;stroke:#000000;stroke-opacity:0.50490195">
		
			<path
   fill="none"
   stroke="#f368e0"
   stroke-width="2.75"
   stroke-linecap="round"
   stroke-linejoin="round"
   stroke-miterlimit="10"
   d="m 914.471,690.33 c -1.786,7.802 -5.012,15.323 -8.997,22.246 -4.079,7.086 -9.177,13.63 -14.94,19.425 -5.449,5.479 -11.71,10.829 -19.496,12.355 -3.863,0.757 -7.871,1.007 -11.797,1.168 -4.114,0.169 -8.273,0.139 -12.357,-0.436 -3.068,-0.432 -6.362,-1.158 -8.935,-2.984 -1.406,-0.997 -2.541,-2.436 -2.36,-4.246 0.182,-1.818 1.394,-3.44 2.634,-4.701 2.599,-2.643 6.043,-4.39 9.354,-5.963 7.64,-3.629 15.602,-6.547 23.228,-10.209 3.538,-1.699 7.018,-3.576 10.111,-6.011 3.218,-2.534 5.728,-5.724 8.498,-8.711 5.453,-5.88 12.108,-10.792 18.904,-15.012 1.384,-0.86 6.574,-4.806 6.698,-0.872 0.039,1.327 -0.268,2.664 -0.545,3.951 z"
   id="path1985"
   style="fill:none;stroke:#000000;stroke-opacity:0.50490195" />
	</g><g
     id="POLYLINE_1346_"
     style="fill:none;stroke:#000000;stroke-opacity:0.50490195">
		
			<path
   fill="none"
   stroke="#f368e0"
   stroke-width="2.75"
   stroke-linecap="round"
   stroke-linejoin="round"
   stroke-miterlimit="10"
   d="m 650.395,751.947 c 6.032,0 12.064,0 18.097,0 1.257,0 3.596,-0.025 4.235,1.386 0.216,0.478 0.141,1.033 0.023,1.526 -0.419,1.749 -1.478,3.372 -2.353,4.915 -2.636,4.649 -5.617,9.128 -8.83,13.397 -2.61,3.467 -5.534,7.388 -9.429,9.492 -1.735,0.937 -3.66,1.377 -5.588,1.716 -2.462,0.433 -4.98,0.771 -7.484,0.772 -1.372,0.001 -3.827,0.047 -4.453,-1.541 -0.297,-0.753 -0.079,-1.651 0.121,-2.398 0.594,-2.212 1.585,-4.346 2.543,-6.419 2.574,-5.572 5.23,-11.107 7.859,-16.653 0.772,-1.629 1.415,-3.451 2.435,-4.929 0.321,-0.465 0.766,-0.808 1.291,-1.013 0.485,-0.187 1.015,-0.251 1.533,-0.251 z"
   id="path1988"
   style="fill:none;stroke:#000000;stroke-opacity:0.50490195" />
	</g><g
     id="POLYLINE_1345_"
     style="fill:none;stroke:#000000;stroke-opacity:0.50490195">
		
			<path
   fill="none"
   stroke="#f368e0"
   stroke-width="2.75"
   stroke-linecap="round"
   stroke-linejoin="round"
   stroke-miterlimit="10"
   d="m 156.971,691.325 c -0.772,-1.28 -1.5,-2.58 -2.172,-3.914"
   id="path1991"
   style="fill:none;stroke:#000000;stroke-opacity:0.50490195" />
	</g><g
     id="POLYLINE_1344_"
     style="fill:none;stroke:#000000;stroke-opacity:0.50490195">
		
			<path
   fill="none"
   stroke="#f368e0"
   stroke-width="2.75"
   stroke-linecap="round"
   stroke-linejoin="round"
   stroke-miterlimit="10"
   d="m 156.971,510.956 c -0.772,1.28 -1.5,2.58 -2.172,3.914"
   id="path1994"
   style="fill:none;stroke:#000000;stroke-opacity:0.50490195" />
	</g><g
     id="POLYLINE_1342_"
     style="fill:none;stroke:#000000;stroke-opacity:0.50490195">
		
			<path
   fill="none"
   stroke="#f368e0"
   stroke-width="2.75"
   stroke-linecap="round"
   stroke-linejoin="round"
   stroke-miterlimit="10"
   d="m 650.395,450.333 c 6.032,0 12.064,0 18.097,0 1.257,0 3.596,0.025 4.235,-1.386 0.216,-0.478 0.141,-1.033 0.023,-1.526 -0.419,-1.749 -1.478,-3.372 -2.353,-4.915 -2.636,-4.649 -5.617,-9.128 -8.83,-13.397 -2.61,-3.467 -5.534,-7.388 -9.429,-9.491 -1.735,-0.937 -3.66,-1.377 -5.588,-1.716 -2.462,-0.433 -4.98,-0.771 -7.484,-0.772 -1.372,-10e-4 -3.827,-0.047 -4.453,1.541 -0.297,0.753 -0.079,1.651 0.121,2.398 0.594,2.212 1.585,4.346 2.543,6.419 2.574,5.572 5.23,11.107 7.859,16.653 0.772,1.629 1.415,3.451 2.435,4.929 0.321,0.465 0.766,0.808 1.291,1.013 0.485,0.187 1.015,0.251 1.533,0.25 z"
   id="path1997"
   style="fill:none;stroke:#000000;stroke-opacity:0.50490195" />
	</g><g
     id="POLYLINE_1341_"
     style="fill:none;stroke:#000000;stroke-opacity:0.50490195">
		
			<path
   fill="none"
   stroke="#f368e0"
   stroke-width="2.75"
   stroke-linecap="round"
   stroke-linejoin="round"
   stroke-miterlimit="10"
   d="m 914.471,511.951 c -1.786,-7.802 -5.012,-15.323 -8.997,-22.246 -4.079,-7.086 -9.177,-13.63 -14.94,-19.425 -5.449,-5.479 -11.71,-10.829 -19.496,-12.355 -3.863,-0.757 -7.871,-1.007 -11.797,-1.168 -4.114,-0.168 -8.273,-0.139 -12.357,0.436 -3.068,0.432 -6.362,1.158 -8.935,2.984 -1.406,0.997 -2.541,2.436 -2.36,4.246 0.182,1.818 1.394,3.44 2.634,4.701 2.599,2.643 6.043,4.39 9.354,5.963 7.64,3.629 15.602,6.547 23.228,10.209 3.538,1.699 7.018,3.576 10.111,6.011 3.218,2.534 5.728,5.724 8.498,8.711 5.453,5.88 12.108,10.792 18.904,15.012 1.384,0.86 6.574,4.806 6.698,0.872 0.039,-1.327 -0.268,-2.664 -0.545,-3.951 z"
   id="path2000"
   style="fill:none;stroke:#000000;stroke-opacity:0.50490195" />
	</g><g
     id="POLYLINE_1340_"
     style="fill:none;stroke:#000000;stroke-opacity:0.50490195">
		
			<path
   fill="none"
   stroke="#f368e0"
   stroke-width="2.75"
   stroke-linecap="round"
   stroke-linejoin="round"
   stroke-miterlimit="10"
   d="m 211.967,461.476 c -3.81,-0.535 -7.616,-0.945 -11.47,-0.803 -3.837,0.141 -7.663,0.713 -11.404,1.565 -3.478,0.791 -7.023,1.827 -10.127,3.622 -2.807,1.623 -5.075,3.951 -7.205,6.363 -5.029,5.695 -8.505,12.534 -11.518,19.455 -3.221,7.398 -5.997,14.998 -8.623,22.625 -1.29,3.746 -2.543,7.52 -3.606,11.338 -0.244,0.875 -0.491,1.756 -0.661,2.65 -0.027,0.142 -0.227,0.833 -0.094,0.958 0.275,0.258 0.893,-1.057 0.973,-1.202 1.947,-3.524 3.52,-7.252 5.348,-10.839 1.725,-3.385 3.598,-6.696 5.57,-9.944 4.274,-7.039 8.725,-14.001 13.62,-20.628 2.185,-2.958 4.499,-5.881 7.295,-8.291 2.715,-2.34 5.868,-4.045 9.143,-5.464 7.161,-3.104 14.765,-5.433 22.395,-7.057 2.064,-0.439 4.146,-0.786 6.218,-1.182 0.723,-0.138 2.109,-0.2 2.721,-0.724 0.914,-0.781 -2.641,-1.386 -2.969,-1.457 -1.855,-0.403 -3.73,-0.696 -5.606,-0.985 z"
   id="path2003"
   style="fill:none;stroke:#000000;stroke-opacity:0.50490195" />
	</g><g
     id="POLYLINE_1339_"
     style="fill:none;stroke:#000000;stroke-opacity:0.50490195">
		
			<path
   fill="none"
   stroke="#f368e0"
   stroke-width="2.75"
   stroke-linecap="round"
   stroke-linejoin="round"
   stroke-miterlimit="10"
   d="m 175.858,462.432 c 1.364,0.554 2.765,1.103 3.885,2.087 1.131,0.994 1.835,2.357 2.477,3.694 1.132,2.355 2.155,4.751 3.572,6.956 1.445,2.25 3.16,4.326 4.99,6.271 3.468,3.687 7.494,7.267 12.115,9.431 4.548,2.13 9.704,2.462 14.644,2.773 5.655,0.356 11.324,0.417 16.988,0.445 3.806,0.019 7.603,0.003 11.408,-0.051 7.248,-0.104 14.497,-0.207 21.745,-0.311 8.423,-0.12 16.845,-0.241 25.268,-0.361 4.924,-0.07 9.848,-0.139 14.772,-0.211 1.889,-0.028 3.778,-0.074 5.667,-0.112 5.815,-0.118 11.629,-0.235 17.444,-0.353 8.177,-0.165 16.354,-0.331 24.531,-0.496 8.638,-0.175 17.275,-0.349 25.913,-0.524 7.314,-0.148 14.629,-0.296 21.943,-0.444 4.103,-0.083 8.205,-0.166 12.308,-0.249 4.504,-0.091 9.008,-0.317 13.51,-0.483 5.859,-0.217 11.714,-0.506 17.571,-0.787 4.92,-0.236 9.833,-0.566 14.749,-0.875 6.641,-0.418 13.286,-0.8 19.925,-1.254 4.683,-0.32 9.362,-0.716 14.042,-1.074 8.026,-0.615 16.053,-1.23 24.079,-1.844 3.879,-0.297 7.753,-0.626 11.629,-0.969 5.864,-0.519 11.736,-0.985 17.595,-1.563 7.09,-0.7 14.179,-1.403 21.269,-2.105 5.104,-0.505 10.198,-1.096 15.296,-1.66 5.023,-0.556 10.047,-1.098 15.063,-1.715 6.389,-0.786 12.787,-1.525 19.17,-2.358 6.567,-0.858 13.124,-1.805 19.685,-2.708 5.165,-0.71 10.315,-1.539 15.46,-2.385 6.118,-1.006 12.215,-2.129 18.318,-3.222 5.219,-0.935 10.427,-1.878 15.71,-2.39 5.687,-0.552 11.405,-0.698 17.116,-0.541 5.619,0.155 11.237,0.525 16.83,1.084 6.199,0.62 12.376,1.369 18.552,2.181 5.757,0.757 11.49,1.695 17.222,2.623 5.75,0.931 11.475,2.037 17.194,3.143 5.718,1.106 11.403,2.384 17.082,3.666 5.481,1.238 10.924,2.651 16.354,4.094 5.627,1.495 11.219,3.138 16.787,4.837 5.399,1.648 10.772,3.412 16.109,5.249 5.308,1.827 10.571,3.773 15.837,5.718"
   id="path2006"
   style="fill:none;stroke:#000000;stroke-opacity:0.50490195" />
	</g><g
     id="POLYLINE_1338_"
     style="fill:none;stroke:#000000;stroke-opacity:0.50490195">
		
			<path
   fill="none"
   stroke="#f368e0"
   stroke-width="2.75"
   stroke-linecap="round"
   stroke-linejoin="round"
   stroke-miterlimit="10"
   d="m 661.622,450.333 c 0,3.692 0,7.385 0,11.077 0,0.226 -0.166,1.398 0,1.566 0.056,0.056 0.257,-10e-4 0.345,0.017 0.973,0.189 2.178,0 3.165,0 8.859,0 17.719,0 26.578,0 2.622,0 5.243,0 7.865,0"
   id="path2009"
   style="fill:none;stroke:#000000;stroke-opacity:0.50490195" />
	</g><g
     id="POLYLINE_1337_"
     style="fill:none;stroke:#000000;stroke-opacity:0.50490195">
		
			<path
   fill="none"
   stroke="#f368e0"
   stroke-width="2.75"
   stroke-linecap="round"
   stroke-linejoin="round"
   stroke-miterlimit="10"
   d="m 835.568,463.855 c -7.669,-0.991 -15.337,-1.992 -23.026,-2.822 -8.098,-0.874 -16.212,-1.646 -24.331,-2.296 -8.084,-0.646 -16.177,-1.195 -24.273,-1.673 -7.266,-0.429 -14.551,-0.78 -21.828,-0.938 -8.036,-0.174 -16.069,-0.324 -24.107,-0.17 -1.051,0.02 -2.101,0.04 -3.152,0.06"
   id="path2012"
   style="fill:none;stroke:#000000;stroke-opacity:0.50490195" />
	</g><g
     id="POLYLINE_1336_"
     style="fill:none;stroke:#000000;stroke-opacity:0.50490195">
		
			<path
   fill="none"
   stroke="#f368e0"
   stroke-width="2.75"
   stroke-linecap="round"
   stroke-linejoin="round"
   stroke-miterlimit="10"
   d="m 911.433,516.836 c 0.323,4.74 0.431,9.476 0.37,14.226"
   id="path2015"
   style="fill:none;stroke:#000000;stroke-opacity:0.50490195" />
	</g><g
     id="POLYLINE_1335_"
     style="fill:none;stroke:#000000;stroke-opacity:0.50490195">
		
			<path
   fill="none"
   stroke="#f368e0"
   stroke-width="2.75"
   stroke-linecap="round"
   stroke-linejoin="round"
   stroke-miterlimit="10"
   d="m 934.349,601.14 c 0.008,1.954 0.237,3.922 0.929,5.761 0.384,-0.168 1.687,-0.49 1.898,-0.828 0.109,-0.175 -0.129,-0.643 -0.2,-0.904 -0.102,-0.377 -0.225,-0.788 -0.256,-1.178 -0.04,-0.5 -0.086,-0.362 0.354,-0.535 2.567,-1.006 5.409,-1.554 8.061,-2.316 -2.661,-0.764 -5.474,-1.337 -8.061,-2.316 -0.435,-0.164 -0.392,-0.052 -0.354,-0.535 0.031,-0.39 0.154,-0.802 0.256,-1.178 0.07,-0.259 0.309,-0.728 0.2,-0.904 -0.215,-0.346 -1.515,-0.661 -1.898,-0.828 -0.692,1.839 -0.921,3.807 -0.929,5.761 z"
   id="path2018"
   style="fill:none;stroke:#000000;stroke-opacity:0.50490195" />
	</g><g
     id="POLYLINE_1334_"
     style="fill:none;stroke:#000000;stroke-opacity:0.50490195">
		
			<path
   fill="none"
   stroke="#f368e0"
   stroke-width="2.75"
   stroke-linecap="round"
   stroke-linejoin="round"
   stroke-miterlimit="10"
   d="m 706.856,443.292 c 0.128,4.597 -1.081,9.206 -3.52,13.112 -1.565,2.507 -3.732,4.858 -6.55,5.932 -2.149,0.819 -4.505,0.723 -6.708,0.171 -4.004,-1.002 -7.659,-3.372 -10.64,-6.175 -2.63,-2.474 -4.829,-5.419 -6.433,-8.655 -0.265,-0.535 -0.513,-1.078 -0.745,-1.628"
   id="path2021"
   style="fill:none;stroke:#000000;stroke-opacity:0.50490195" />
	</g><g
     id="POLYLINE_1333_"
     style="fill:none;stroke:#000000;stroke-opacity:0.50490195">
		
			<path
   fill="none"
   stroke="#f368e0"
   stroke-width="2.75"
   stroke-linecap="round"
   stroke-linejoin="round"
   stroke-miterlimit="10"
   d="m 259.367,493.951 c 5.58,-3.215 11.152,-6.378 17.146,-8.77 6.045,-2.412 12.333,-4.201 18.635,-5.799 6.234,-1.58 12.526,-2.948 18.838,-4.177 6.606,-1.286 13.237,-2.45 19.885,-3.5 6.724,-1.062 13.468,-1.997 20.219,-2.872 6.143,-0.797 12.301,-1.502 18.459,-2.175 6.557,-0.716 13.114,-1.381 19.679,-2.022 6.555,-0.64 13.106,-1.321 19.669,-1.872 7.379,-0.62 14.758,-1.192 22.143,-1.733 6.512,-0.477 13.033,-0.848 19.551,-1.233 6.137,-0.363 12.284,-0.655 18.425,-0.931 6.293,-0.283 12.592,-0.567 18.889,-0.761 7.446,-0.23 14.894,-0.403 22.34,-0.605 5.887,-0.159 11.776,-0.388 17.664,-0.472 6.786,-0.097 13.574,-0.234 20.361,-0.286 6.76,-0.051 13.522,-0.104 20.283,-0.099 6.639,0.006 13.281,0.03 19.919,0.105 6.302,0.07 12.608,0.148 18.908,0.314 6.151,0.162 12.306,0.27 18.455,0.518 8.756,0.353 17.512,0.705 26.268,1.058 2.172,0.087 4.345,0.175 6.517,0.262"
   id="path2024"
   style="fill:none;stroke:#000000;stroke-opacity:0.50490195" />
	</g><g
     id="POLYLINE_1332_"
     style="fill:none;stroke:#000000;stroke-opacity:0.50490195">
		
			<path
   fill="none"
   stroke="#f368e0"
   stroke-width="2.75"
   stroke-linecap="round"
   stroke-linejoin="round"
   stroke-miterlimit="10"
   d="m 356.175,438.497 c -5.32,0.282 -10.632,0.739 -15.849,1.865 -5.172,1.117 -10.239,2.723 -15.182,4.602 -2.402,0.913 -4.782,1.916 -7.065,3.098 -1.615,0.836 -3.278,1.747 -4.613,3.001 -2.038,1.914 -1.714,4.069 -1.094,6.572 1.246,5.028 3.07,9.916 4.961,14.732 0.267,0.681 0.534,1.361 0.801,2.042"
   id="path2027"
   style="fill:none;stroke:#000000;stroke-opacity:0.50490195" />
	</g><g
     id="POLYLINE_1331_"
     style="fill:none;stroke:#000000;stroke-opacity:0.50490195">
		
			<path
   fill="none"
   stroke="#f368e0"
   stroke-width="2.75"
   stroke-linecap="round"
   stroke-linejoin="round"
   stroke-miterlimit="10"
   d="m 269.302,493.809 c -4.415,1.855 -7.395,5.144 -8.001,9.975 -0.166,1.327 -0.168,2.676 -0.01,4.004"
   id="path2030"
   style="fill:none;stroke:#000000;stroke-opacity:0.50490195" />
	</g><g
     id="POLYLINE_432_"
     style="fill:none;stroke:#000000;stroke-opacity:0.50490195">
		
			<path
   fill="none"
   stroke="#f368e0"
   stroke-width="3.5"
   stroke-linecap="round"
   stroke-linejoin="round"
   stroke-miterlimit="10"
   d="m 211.967,461.476 c -3.81,-0.535 -7.616,-0.945 -11.47,-0.803 -3.837,0.141 -7.663,0.713 -11.404,1.565 -3.478,0.791 -7.023,1.827 -10.127,3.622 -2.807,1.623 -5.075,3.951 -7.205,6.363 -5.029,5.695 -8.505,12.534 -11.518,19.455 -3.221,7.398 -5.997,14.998 -8.623,22.625 -1.29,3.746 -2.543,7.52 -3.606,11.338 -0.244,0.875 -0.491,1.756 -0.661,2.65 -0.027,0.142 -0.227,0.833 -0.094,0.958 0.275,0.258 0.893,-1.057 0.973,-1.202 1.947,-3.524 3.52,-7.252 5.348,-10.839 1.725,-3.385 3.598,-6.696 5.57,-9.944 4.274,-7.039 8.725,-14.001 13.62,-20.628 2.185,-2.958 4.499,-5.881 7.295,-8.291 2.715,-2.34 5.868,-4.045 9.143,-5.464 7.161,-3.104 14.765,-5.433 22.395,-7.057 2.064,-0.439 4.146,-0.786 6.218,-1.182 0.723,-0.138 2.109,-0.2 2.721,-0.724 0.914,-0.781 -2.641,-1.386 -2.969,-1.457 -1.855,-0.403 -3.73,-0.696 -5.606,-0.985 z"
   id="path2442"
   style="fill:none;stroke:#000000;stroke-opacity:0.50490195" />
	</g><g
     id="POLYLINE_431_"
     style="fill:none;stroke:#000000;stroke-opacity:0.50490195">
		
			<path
   fill="none"
   stroke="#f368e0"
   stroke-width="3.5"
   stroke-linecap="round"
   stroke-linejoin="round"
   stroke-miterlimit="10"
   d="m 914.471,511.951 c -1.786,-7.802 -5.012,-15.323 -8.997,-22.246 -4.079,-7.086 -9.177,-13.63 -14.94,-19.425 -5.449,-5.479 -11.71,-10.829 -19.496,-12.355 -3.863,-0.757 -7.871,-1.007 -11.797,-1.168 -4.114,-0.168 -8.273,-0.139 -12.357,0.436 -3.068,0.432 -6.362,1.158 -8.935,2.984 -1.406,0.997 -2.541,2.436 -2.36,4.246 0.182,1.818 1.394,3.44 2.634,4.701 2.599,2.643 6.043,4.39 9.354,5.963 7.64,3.629 15.602,6.547 23.228,10.209 3.538,1.699 7.018,3.576 10.111,6.011 3.218,2.534 5.728,5.724 8.498,8.711 5.453,5.88 12.108,10.792 18.904,15.012 1.384,0.86 6.574,4.806 6.698,0.872 0.039,-1.327 -0.268,-2.664 -0.545,-3.951 z"
   id="path2445"
   style="fill:none;stroke:#000000;stroke-opacity:0.50490195" />
	</g><g
     id="POLYLINE_430_"
     style="fill:none;stroke:#000000;stroke-opacity:0.50490195">
		
			<path
   fill="none"
   stroke="#f368e0"
   stroke-width="3.5"
   stroke-linecap="round"
   stroke-linejoin="round"
   stroke-miterlimit="10"
   d="m 914.471,690.33 c -1.786,7.802 -5.012,15.323 -8.997,22.246 -4.079,7.086 -9.177,13.63 -14.94,19.425 -5.449,5.479 -11.71,10.829 -19.496,12.355 -3.863,0.757 -7.871,1.007 -11.797,1.168 -4.114,0.169 -8.273,0.139 -12.357,-0.436 -3.068,-0.432 -6.362,-1.158 -8.935,-2.984 -1.406,-0.997 -2.541,-2.436 -2.36,-4.246 0.182,-1.818 1.394,-3.44 2.634,-4.701 2.599,-2.643 6.043,-4.39 9.354,-5.963 7.64,-3.629 15.602,-6.547 23.228,-10.209 3.538,-1.699 7.018,-3.576 10.111,-6.011 3.218,-2.534 5.728,-5.724 8.498,-8.711 5.453,-5.88 12.108,-10.792 18.904,-15.012 1.384,-0.86 6.574,-4.806 6.698,-0.872 0.039,1.327 -0.268,2.664 -0.545,3.951 z"
   id="path2448"
   style="fill:none;stroke:#000000;stroke-opacity:0.50490195" />
	</g><g
     id="POLYLINE_429_"
     style="fill:none;stroke:#000000;stroke-opacity:0.50490195">
		
			<path
   fill="none"
   stroke="#f368e0"
   stroke-width="3.5"
   stroke-linecap="round"
   stroke-linejoin="round"
   stroke-miterlimit="10"
   d="m 211.967,740.805 c -3.81,0.535 -7.616,0.945 -11.47,0.803 -3.837,-0.141 -7.663,-0.713 -11.404,-1.565 -3.478,-0.792 -7.023,-1.827 -10.127,-3.622 -2.807,-1.623 -5.075,-3.951 -7.205,-6.363 -5.029,-5.695 -8.505,-12.534 -11.518,-19.455 -3.221,-7.398 -5.997,-14.998 -8.623,-22.625 -1.29,-3.747 -2.543,-7.52 -3.606,-11.338 -0.244,-0.875 -0.491,-1.756 -0.661,-2.65 -0.027,-0.142 -0.227,-0.833 -0.094,-0.958 0.275,-0.258 0.893,1.057 0.973,1.202 1.947,3.524 3.52,7.252 5.348,10.839 1.725,3.385 3.598,6.696 5.57,9.944 4.274,7.039 8.725,14.001 13.62,20.628 2.185,2.958 4.499,5.881 7.295,8.291 2.715,2.34 5.868,4.045 9.143,5.464 7.161,3.104 14.765,5.433 22.395,7.057 2.064,0.439 4.146,0.786 6.218,1.182 0.723,0.138 2.109,0.2 2.721,0.724 0.914,0.781 -2.641,1.386 -2.969,1.457 -1.855,0.402 -3.73,0.696 -5.606,0.985 z"
   id="path2451"
   style="fill:none;stroke:#000000;stroke-opacity:0.50490195" />
	</g><g
     id="POLYLINE_428_"
     style="fill:none;stroke:#000000;stroke-opacity:0.50490195">
		
			<path
   fill="none"
   stroke="#f368e0"
   stroke-width="3.5"
   stroke-linecap="round"
   stroke-linejoin="round"
   stroke-miterlimit="10"
   d="m 188.28,601.14 c -0.068,7.13 0.212,14.253 0.79,21.36 0.562,6.903 1.538,13.766 3.134,20.509 1.591,6.723 3.736,13.351 6.567,19.658 2.775,6.183 6.449,11.987 11.429,16.633 5.04,4.702 11.123,8.149 17.694,10.199 6.556,2.045 13.444,2.86 20.245,3.62 7.078,0.79 14.165,1.495 21.261,2.105 6.326,0.543 12.655,1.09 18.992,1.487 9.348,0.585 18.696,1.171 28.044,1.756 2.855,0.179 5.709,0.367 8.566,0.5 4.621,0.215 9.241,0.429 13.862,0.644 7.842,0.364 15.685,0.729 23.527,1.093 9.868,0.458 19.736,0.917 29.604,1.375 10.826,0.503 21.652,1.006 32.478,1.509 10.493,0.487 20.985,0.975 31.478,1.462 9.119,0.424 18.238,0.847 27.357,1.271 6.475,0.301 12.95,0.602 19.425,0.902 2.741,0.127 5.484,0.235 8.224,0.382 6.137,0.329 12.282,0.699 18.409,1.18 7.835,0.614 15.664,1.248 23.486,2.01 7.722,0.752 15.432,1.646 23.147,2.469 5.087,0.543 10.164,1.192 15.244,1.798 10.198,1.216 20.397,2.433 30.595,3.649 4.068,0.485 8.14,0.942 12.201,1.487 8.636,1.159 17.273,2.318 25.909,3.476 8.861,1.189 17.722,2.378 26.583,3.567 5.454,0.732 10.923,1.371 16.403,1.881 7.176,0.668 14.363,1.17 21.574,1.141 7.093,-0.028 14.156,-0.655 21.17,-1.689 7.09,-1.045 14.112,-2.532 21.109,-4.069 7.071,-1.553 14.103,-3.286 21.126,-5.041 6.46,-1.614 12.9,-3.326 19.321,-5.088 7.645,-2.098 15.27,-4.245 22.882,-6.457 6.413,-1.863 12.807,-3.874 19.115,-6.066 6.906,-2.4 13.766,-4.913 20.526,-7.701 6.565,-2.708 13.057,-5.609 19.405,-8.795 6.224,-3.124 12.382,-6.497 18.061,-10.541 5.238,-3.73 9.732,-8.195 12.829,-13.875 3.265,-5.99 5.276,-12.624 7.005,-19.193 1.786,-6.787 3.117,-13.717 4.006,-20.678 0.857,-6.706 1.206,-13.526 1.131,-20.286 -0.08,-7.132 -0.368,-14.235 -1.361,-21.306 -0.97,-6.911 -2.354,-13.781 -4.189,-20.515 -1.778,-6.524 -3.891,-13.15 -7.371,-18.988 -3.343,-5.609 -8.165,-9.888 -13.519,-13.532 -5.849,-3.981 -12.123,-7.308 -18.458,-10.439 -6.26,-3.095 -12.669,-5.893 -19.137,-8.523 -6.433,-2.615 -12.951,-5.042 -19.533,-7.258 -6.576,-2.214 -13.191,-4.325 -19.858,-6.248 -7.856,-2.267 -15.721,-4.473 -23.606,-6.637 -6.343,-1.741 -12.716,-3.392 -19.099,-4.979 -6.943,-1.726 -13.897,-3.421 -20.891,-4.929 -7.117,-1.535 -14.25,-3.01 -21.466,-4.007 -6.856,-0.947 -13.771,-1.447 -20.693,-1.407 -7.344,0.042 -14.667,0.607 -21.972,1.322 -5.274,0.516 -10.534,1.171 -15.786,1.876 -9.292,1.247 -18.583,2.493 -27.875,3.74 -8.082,1.084 -16.164,2.169 -24.246,3.253 -4.465,0.599 -8.946,1.085 -13.418,1.619 -10.199,1.216 -20.398,2.433 -30.597,3.649 -4.901,0.585 -9.8,1.19 -14.708,1.714 -7.573,0.808 -15.141,1.707 -22.724,2.407 -7.888,0.728 -15.773,1.414 -23.673,2.009 -5.728,0.431 -11.474,0.788 -17.21,1.081 -3.083,0.157 -6.168,0.287 -9.252,0.43 -6.723,0.312 -13.447,0.625 -20.17,0.937 -9.245,0.429 -18.49,0.859 -27.736,1.288 -10.587,0.492 -21.175,0.984 -31.762,1.475 -10.765,0.5 -21.531,1 -32.296,1.5 -9.779,0.454 -19.558,0.909 -29.338,1.363 -7.629,0.354 -15.258,0.709 -22.887,1.063 -4.314,0.2 -8.629,0.401 -12.943,0.601 -3.345,0.155 -6.686,0.392 -10.028,0.601 -8.999,0.564 -17.998,1.127 -26.997,1.69 -6.723,0.421 -13.437,1.033 -20.148,1.61 -6.827,0.587 -13.652,1.285 -20.458,2.076 -6.875,0.799 -13.826,1.688 -20.398,3.955 -6.542,2.257 -12.562,5.992 -17.433,10.913 -4.726,4.775 -8.135,10.628 -10.775,16.766 -2.758,6.413 -4.84,13.137 -6.351,19.949 -1.528,6.89 -2.402,13.887 -2.925,20.919 -0.482,6.427 -0.689,12.874 -0.627,19.318 z"
   id="path2454"
   style="fill:none;stroke:#000000;stroke-opacity:0.50490195" />
	</g><g
     id="POLYLINE_427_"
     style="fill:none;stroke:#000000;stroke-opacity:0.50490195">
		
			<path
   fill="none"
   stroke="#f368e0"
   stroke-width="3.5"
   stroke-linecap="round"
   stroke-linejoin="round"
   stroke-miterlimit="10"
   d="m 730.835,472.188 c 2.474,3.675 4.942,7.346 7.137,11.197 2.167,3.802 4.075,7.74 5.888,11.72 1.908,4.189 3.664,8.445 5.392,12.711 1.651,4.073 3.191,8.191 4.696,12.32 1.504,4.127 2.931,8.284 4.22,12.483 1.281,4.172 2.396,8.39 3.384,12.641 0.974,4.188 1.801,8.417 2.513,12.658 0.768,4.571 1.439,9.152 2.015,13.751 0.551,4.407 0.972,8.829 1.314,13.256 0.336,4.351 0.545,8.718 0.619,13.081 0.073,4.33 0,8.668 -0.226,12.993 -0.229,4.386 -0.536,8.768 -0.986,13.137 -0.468,4.54 -1.018,9.068 -1.679,13.584 -0.635,4.333 -1.363,8.654 -2.215,12.95 -0.887,4.469 -1.902,8.911 -3.094,13.31 -1.151,4.246 -2.485,8.435 -3.895,12.6 -1.429,4.218 -2.983,8.397 -4.573,12.557 -1.612,4.218 -3.326,8.394 -5.078,12.555 -1.695,4.027 -3.515,8.006 -5.467,11.915 -1.88,3.763 -3.986,7.408 -6.268,10.941 -1.205,1.866 -2.457,3.701 -3.697,5.544"
   id="path2457"
   style="fill:none;stroke:#000000;stroke-opacity:0.50490195" />
	</g><g
     id="POLYLINE_426_"
     style="fill:none;stroke:#000000;stroke-opacity:0.50490195">
		
			<path
   fill="none"
   stroke="#f368e0"
   stroke-width="3.5"
   stroke-linecap="round"
   stroke-linejoin="round"
   stroke-miterlimit="10"
   d="m 147.304,529.319 c -1.673,4.506 -3.368,9.002 -4.796,13.594 -1.394,4.481 -2.491,9.044 -3.374,13.652 -0.88,4.59 -1.603,9.222 -2.175,13.86 -0.601,4.873 -1.147,9.75 -1.504,14.648 -0.368,5.054 -0.376,10.121 -0.458,15.186 -0.073,4.489 0.04,9.014 0.249,13.499 0.222,4.769 0.691,9.532 1.241,14.274 0.555,4.784 1.217,9.56 2.037,14.306 0.799,4.624 1.753,9.22 3.015,13.741 1.262,4.523 2.82,8.949 4.453,13.349 0.437,1.178 0.874,2.355 1.311,3.533"
   id="path2460"
   style="fill:none;stroke:#000000;stroke-opacity:0.50490195" />
	</g><g
     id="POLYLINE_425_"
     style="fill:none;stroke:#000000;stroke-opacity:0.50490195">
		
			<path
   fill="none"
   stroke="#f368e0"
   stroke-width="3.5"
   stroke-linecap="round"
   stroke-linejoin="round"
   stroke-miterlimit="10"
   d="m 671.156,758.412 c -3.131,5.627 -6.673,11.051 -10.64,16.127 -2.926,3.743 -6.24,7.785 -10.969,9.176 -2.977,0.876 -6.225,1.265 -9.318,1.407 -1.489,0.068 -3.47,0.215 -4.815,-0.604 -1.964,-1.196 -0.407,-4.315 0.186,-5.826 2.565,-6.53 5.867,-12.82 8.865,-19.155 0.156,-0.33 0.312,-0.659 0.468,-0.989 -3.414,0.123 -6.827,0.245 -10.241,0.368 -7.29,0.262 -14.581,0.524 -21.871,0.786 -6.742,0.242 -13.484,0.484 -20.226,0.726 -2.35,0.084 -4.7,0.183 -7.05,0.243 -5.702,0.146 -11.404,0.292 -17.106,0.437 -7.074,0.181 -14.147,0.362 -21.221,0.542 -2.483,0.063 -4.964,0.129 -7.447,0.166 -6.291,0.094 -12.581,0.188 -18.872,0.282 -6.841,0.102 -13.683,0.204 -20.524,0.307 -2.62,0.039 -5.236,0.062 -7.856,0.058 -7.076,-0.009 -14.152,-0.018 -21.228,-0.026 -3.46,-0.004 -6.925,0.048 -10.384,-0.025 -4.756,-0.099 -9.512,-0.199 -14.267,-0.298 -7.565,-0.158 -15.13,-0.316 -22.695,-0.475 -5.611,-0.117 -11.222,-0.235 -16.832,-0.352 -3.849,-0.081 -7.699,-0.113 -11.549,-0.119 -4.962,-0.008 -9.924,0.097 -14.877,0.404 -5.441,0.337 -10.866,0.951 -16.289,1.49 -4.684,0.466 -9.374,0.848 -14.077,1.057 -5.414,0.24 -10.827,0.422 -16.246,0.518 -4.641,0.082 -9.286,0.14 -13.928,0.144 -4.742,0.004 -9.485,0.04 -14.227,0 -6.543,-0.055 -13.085,-0.11 -19.628,-0.165 -4.294,-0.036 -8.59,-0.039 -12.884,-0.115 -5.188,-0.092 -10.377,-0.147 -15.564,-0.287 -5.743,-0.155 -11.486,-0.294 -17.226,-0.535 -4.671,-0.196 -9.41,-0.526 -13.967,-1.625 -4.826,-1.163 -9.343,-3.273 -13.834,-5.338 -4.961,-2.282 -9.905,-4.602 -14.854,-6.91 -3.891,-1.815 -7.78,-3.62 -11.704,-5.363 -5.222,-2.32 -10.473,-4.583 -15.667,-6.964 -4.133,-1.894 -8.449,-3.761 -11.648,-7.092 -3.253,-3.387 -5.659,-7.62 -7.895,-11.717 -2.404,-4.406 -4.587,-8.944 -6.589,-13.545 -2.096,-4.817 -4.07,-9.684 -5.877,-14.618 -1.725,-4.708 -3.305,-9.472 -4.753,-14.272 -1.463,-4.851 -2.811,-9.74 -4.016,-14.662 -1.245,-5.087 -2.374,-10.199 -3.359,-15.342 -0.973,-5.079 -1.802,-10.184 -2.451,-15.315 -0.622,-4.918 -1.012,-9.863 -1.222,-14.815 -0.212,-5.018 -0.362,-10.058 -0.345,-15.08 0.018,-5.393 0.149,-10.796 0.401,-16.183 0.234,-4.997 0.693,-9.986 1.352,-14.945 0.683,-5.135 1.559,-10.24 2.547,-15.325 0.935,-4.813 2.007,-9.607 3.199,-14.362 1.237,-4.934 2.555,-9.855 4.062,-14.714 1.542,-4.974 3.165,-9.919 4.986,-14.799 1.786,-4.786 3.687,-9.529 5.762,-14.197 2.098,-4.719 4.341,-9.382 6.858,-13.894 2.235,-4.005 4.657,-8.184 8.005,-11.375 3.147,-2.999 7.305,-4.764 11.214,-6.535 5.56,-2.518 11.158,-4.957 16.736,-7.435 4.028,-1.789 8.012,-3.67 12.006,-5.533 4.921,-2.295 9.841,-4.593 14.774,-6.862 4.325,-1.989 8.724,-3.89 13.399,-4.885 4.666,-0.993 9.472,-1.241 14.226,-1.432 5.558,-0.223 11.119,-0.366 16.68,-0.503 5.117,-0.126 10.236,-0.203 15.354,-0.276 4.685,-0.067 9.371,-0.08 14.057,-0.119 6.168,-0.052 12.337,-0.104 18.505,-0.156 4.763,-0.04 9.528,-0.013 14.291,0.006 4.756,0.019 9.516,0.061 14.271,0.166 5.334,0.118 10.669,0.253 15.998,0.53 4.972,0.258 9.919,0.687 14.872,1.18 5.303,0.527 10.605,1.106 15.928,1.408 5.129,0.291 10.265,0.334 15.4,0.325 3.519,-0.006 7.038,-0.059 10.556,-0.132 5.93,-0.124 11.86,-0.248 17.791,-0.372 7.518,-0.157 15.036,-0.314 22.554,-0.472 4.342,-0.091 8.685,-0.203 13.027,-0.272 3.902,-0.062 7.809,-0.015 11.712,-0.02 6.879,-0.009 13.758,-0.017 20.637,-0.026 2.644,-0.003 5.285,0.037 7.929,0.077 7.053,0.105 14.106,0.211 21.159,0.316 5.952,0.089 11.904,0.178 17.855,0.267 2.622,0.039 5.243,0.118 7.864,0.185 7.231,0.185 14.463,0.37 21.694,0.555 5.312,0.136 10.624,0.27 15.937,0.407 2.586,0.067 5.172,0.181 7.758,0.274 6.941,0.249 13.883,0.499 20.824,0.748 7.149,0.257 14.299,0.514 21.448,0.77 2.957,0.106 5.914,0.212 8.871,0.319 -3.076,-6.498 -6.424,-12.943 -9.121,-19.613 -0.684,-1.692 -2.608,-5.368 -0.098,-6.511 1.88,-0.856 4.422,-0.501 6.389,-0.315 3.052,0.288 6.364,0.648 9.189,1.908 2.153,0.96 3.931,2.552 5.546,4.239 2.303,2.405 4.333,5.07 6.272,7.773 2.073,2.889 4.052,5.853 5.888,8.9 0.469,0.779 0.927,1.564 1.376,2.354 0.22,0.387 0.488,1.238 0.861,1.402 0.326,0.143 1.043,-0.002 1.393,-0.003 0.872,-0.002 1.743,-0.003 2.615,-0.005 7.905,-0.015 15.822,0.105 23.724,-0.143 6.879,-0.216 13.677,-0.939 20.473,-2.012 7.397,-1.169 14.762,-2.257 22.241,-2.743 6.848,-0.445 13.736,-0.545 20.597,-0.53 5.842,0.012 11.686,0.129 17.528,0.193 10.522,0.116 21.044,0.232 31.566,0.347 5.728,0.063 11.458,0.098 17.185,0.189 7.38,0.117 14.76,0.293 22.136,0.559 6.517,0.235 13.353,0.36 19.661,2.17 5.721,1.642 10.663,5.086 15.107,8.958 5.17,4.503 9.831,9.617 14.123,14.955 4.42,5.497 8.502,11.273 12.314,17.207 3.935,6.125 7.639,12.394 11.017,18.845 3.32,6.34 6.303,12.845 8.989,19.477 2.665,6.581 5.011,13.309 6.996,20.126 2.012,6.909 3.671,13.903 4.994,20.977 1.279,6.838 2.243,13.75 2.849,20.681 0.62,7.097 0.814,14.223 0.715,21.345 -0.099,7.112 -0.551,14.201 -1.402,21.264 -0.837,6.942 -1.985,13.856 -3.483,20.686 -1.531,6.982 -3.381,13.891 -5.619,20.68 -2.291,6.948 -4.889,13.792 -7.844,20.485 -2.844,6.443 -6.015,12.741 -9.469,18.878 -3.546,6.3 -7.391,12.423 -11.462,18.397 -3.953,5.801 -8.205,11.404 -12.853,16.667 -4.406,4.99 -9.176,9.801 -14.608,13.678 -4.969,3.547 -10.315,5.591 -16.36,6.39 -6.667,0.881 -13.492,1.048 -20.209,1.202 -7.261,0.167 -14.526,0.212 -21.788,0.317 -8.95,0.13 -17.899,0.261 -26.849,0.391 -6.042,0.088 -12.085,0.132 -18.127,0.194 -7.362,0.076 -14.72,0.189 -22.082,0.102 -7.024,-0.084 -14.07,-0.342 -21.057,-1.092 -7.035,-0.756 -13.981,-2.123 -20.995,-3.034 -6.413,-0.833 -12.904,-1.2 -19.37,-1.213 -7.578,-0.011 -15.153,-0.026 -22.728,-0.04 z"
   id="path2463"
   style="fill:none;stroke:#000000;stroke-opacity:0.50490195" />
	</g></g>
</svg>
